<svg xmlns="http://www.w3.org/2000/svg" xmlns:xlink="http://www.w3.org/1999/xlink" viewBox="0 0 1080 1350"><defs><style>.cls-1{isolation:isolate;}.cls-2,.cls-3{mix-blend-mode:multiply;}.cls-2{fill:url(#Degradado_sin_nombre_17);}.cls-3{fill:url(#Degradado_sin_nombre_17-2);}.cls-4{fill:#fff;fill-rule:evenodd;}</style><linearGradient id="Degradado_sin_nombre_17" x1="492.3" y1="569.72" x2="635.19" y2="569.72" gradientUnits="userSpaceOnUse"><stop offset="0" stop-color="#33338e"/><stop offset="0.54" stop-color="#6e5acc"/><stop offset="1" stop-color="#22b5cc"/></linearGradient><linearGradient id="Degradado_sin_nombre_17-2" x1="614.58" y1="632.45" x2="496.9" y2="533.23" xlink:href="#Degradado_sin_nombre_17"/></defs><g class="cls-1"><g id="Capa_1" data-name="Capa 1"><path class="cls-2" d="M610.18,600.78a33.16,33.16,0,0,0-3.15,3c-4.4,4.86-6.76,11.17-9.53,17.11-5,10.58-11.82,20.08-18.75,29.34-6.69,8.94-18.82,17.4-30.2,18.11-13.2.82-22.78-8.85-30.83-18.76-11.9-14.66-22.88-31.6-25-53.89-1.55-16.17,1.54-32.55,5.78-48.1,1.93-7.08,2.57-14.3,5.07-21.15,3.05-8.38,6.69-16.53,10.33-24.67,2-4.48,4-9,7.19-12.78a43.36,43.36,0,0,1,11.13-8.86c6.16-3.7,12.75-6.87,19.79-8.31s14.62-1,21.08,2.13c12.54,6.14,18.09,20.64,26.75,31.6,9,11.33,21.89,19.4,29.24,31.85a44.11,44.11,0,0,1-9.46,56.09C616.58,596.06,613.2,598.23,610.18,600.78Z"/><path class="cls-3" d="M493,594.05a36.93,36.93,0,0,0-14.28-4.7c-7-1-14.66-.7-20.24,3.6s-8,12.52-6.28,19.56a52,52,0,0,0,5.55,12.66A19.77,19.77,0,0,0,468.31,634a37.34,37.34,0,0,0,8.56,1.4c6.11.52,12.73,1.33,17.12,5.62,1.74,1.7,3,3.84,4.59,5.68s3.73,3.45,6.17,3.5a7.25,7.25,0,0,0,5.77-3.11,14.91,14.91,0,0,0,2.44-6.3c1.51-8.27-.32-16.9-3.86-24.52a81,81,0,0,0-9.59-16.09A27.4,27.4,0,0,0,493,594.05Zm33-105a24.08,24.08,0,0,0-14.43-4.27,10,10,0,0,0-4.18.72c-2.91,1.36-4.18,4.8-4.67,8a13.68,13.68,0,0,0,.52,7.35,11.77,11.77,0,0,0,2.75,3.85,18.77,18.77,0,0,0,22.11,2.58C535.79,502.63,531.85,493.43,526,489.07Zm63.41,118.84c-.3,2.93.9,5.82,2.4,8.36,2.7,4.55,6.71,8.58,11.8,10.05s11.27-.25,13.93-4.82l.21-.1c4.72-1.47,7.32-7,6.66-11.92s-3.92-9.11-7.71-12.3a16.52,16.52,0,0,0-6.18-3.55c-5.38-1.46-11,1.45-15.23,5.07C592.41,601.13,589.74,604.19,589.37,607.91Zm-34.28-107.8c-14.58,2-27,12.24-41.5,14.59-13.41,2.17-27.43-2.59-40.59.78-13.89,3.54-24.69,16.8-25.37,31.12S456.46,575.13,470,580c6.91,2.48,14.59,2.71,21.11,6.09,15.89,8.24,18,30.67,31.11,42.86A32.24,32.24,0,0,0,553,636c15.94-4.9,19.06-20.37,27.88-31.84,10.6-13.78,23.56-23.69,26.5-42.08a53.94,53.94,0,0,0-.7-19.45C601.67,518.6,579.39,496.77,555.09,500.11Zm49.46-2.46c-2.82-2.12-5.75-4.28-9.17-5.15-2.54-.65-5.64-.35-7.21,1.76a5.94,5.94,0,0,0-.7,5,16.59,16.59,0,0,0,2.37,4.67c4.26,6.45,9.16,12.81,15.94,16.52,2.29,1.26,5.1,2.18,7.46,1.06,2.13-1,3.26-3.49,3.35-5.86C616.87,507.62,610.41,502,604.55,497.65ZM457,581.33c-.57-2.07-2.3-4.06-4.43-3.94a6,6,0,0,0-2.61,1,11.66,11.66,0,0,0-4.09,3.47,7.05,7.05,0,0,0,.31,8C451.67,596.85,458.64,587.26,457,581.33ZM630.64,601a4.63,4.63,0,0,0,3-4.93,4.2,4.2,0,0,0-4.51-3.39,4.73,4.73,0,0,0-1.73.62,5.43,5.43,0,0,0-2.81,5.41c.38,2.13,2.72,3.83,4.79,3.17M489.69,505.33c-.39-.22-.52.55-.27.92a4.45,4.45,0,0,0,5.93,1,5.07,5.07,0,0,0,1.69-5.92,5.93,5.93,0,0,0-5.19-3.56,4,4,0,0,0-3,1,3.77,3.77,0,0,0-.58,4A9.73,9.73,0,0,0,491,506.1m93.63,125.55a7.72,7.72,0,0,0,4.67,2.51,5.36,5.36,0,0,0,4.82-1.89,4.14,4.14,0,0,0,0-5,7,7,0,0,0-2.14-1.54l-4.13-2.26a2.73,2.73,0,0,0-2.33-.45,2.23,2.23,0,0,0-.92.93,7.48,7.48,0,0,0,3,10.22"/><path class="cls-4" d="M553.3,544.27v-8.34c0-4,2.65-4.95,4.56-4.95h11.66V513.19h-16c-17.85,0-21.85,13.17-21.85,21.73v9.35H521.26V565h10.48V617h20.77V565h15.37l.68-8.16,1.24-12.61Z"/></g></g></svg>