<svg id="Capa_1" data-name="Capa 1" xmlns="http://www.w3.org/2000/svg" xmlns:xlink="http://www.w3.org/1999/xlink" viewBox="0 0 1080 1350"><defs><style>.cls-1{fill:none;}.cls-2{fill:#ffcf03;}.cls-3{fill:#757575;}.cls-4{clip-path:url(#clip-path);}.cls-5{fill:#6f6f6e;}.cls-6{fill:#9d9d9d;}</style><clipPath id="clip-path"><path class="cls-1" d="M676.42,605.64c-.22,17.12-7.52,28.59-21.7,35.75-12.91,6.51-29.83,3.49-40.27-5.88a38.8,38.8,0,0,1-9.27-12.72c-9.33-19.79-18.89-39.47-28.34-59.2A82.07,82.07,0,0,1,573.5,556c-2-5.55.92-11.23,6.78-13.55,4.82-1.9,10.34.47,12.77,5.53q11.49,23.91,22.94,47.84c2.83,5.9,5.64,11.81,8.59,17.65s7.81,9.28,14.4,9.32c6,0,10.93-2.71,13.65-8.3,2.43-5,2.07-10.13-.29-15.1q-7.44-15.63-15-31.23c-6.23-12.88-12.57-25.69-18.75-38.59-4.55-9.48-8.83-19.09-13.37-28.57-2.58-5.39-6.62-9-12.9-9.51-7.2-.6-12.33,2.61-15.46,8.82-4.77,9.49-9.22,19.15-13.83,28.72q-12.37,25.71-24.76,51.4c-6.74,14-13.62,27.92-20.17,42-4.31,9.26-10.88,16.17-20.37,19.69-14.25,5.27-27.27,2.68-38.71-7.5-11.65-10.36-14.84-29.32-8.05-43,11.52-23.27,22.48-46.81,33.69-70.24q15.68-32.76,31.38-65.52,15-31.2,30.08-62.38c1.9-3.95,3.78-7.92,5.73-11.85a10.81,10.81,0,0,1,11.6-6.14c4.25.7,8.69,5.16,9.1,9.62a11.29,11.29,0,0,1-1.07,5.32c-3.14,7-6.41,13.92-9.75,20.81-7,14.44-14.08,28.83-21.07,43.27s-13.8,28.74-20.72,43.1q-16.44,34.11-32.92,68.21c-3.77,7.82-7.54,15.65-11.23,23.51-2.07,4.4-4.23,8.78-5.88,13.34-2.7,7.42.32,14.54,7.28,18.11,6.55,3.37,14.75,1.75,18.82-4.52A158.13,158.13,0,0,0,505.24,599c6.57-13.51,13-27.11,19.45-40.64,11.2-23.3,21.8-45.2,33-68.5,4.1-8.53,10.63-13.53,19-17.3a34.89,34.89,0,0,1,21.86-2.14A37.57,37.57,0,0,1,614,477.49c3.54,2.76,9,10.1,11,14.21,11,22.38,20.31,43.12,31.07,65.61,5.83,12.17,10.81,21.58,16.55,33.79C674.51,595.16,676.43,599.57,676.42,605.64Z"/></clipPath></defs><path class="cls-2" d="M677.45,616.32c-.24,18.56-8.14,31-23.52,38.74-14,7.06-32.32,3.79-43.63-6.37a41.9,41.9,0,0,1-10.06-13.79c-10.11-21.44-20.46-42.77-30.7-64.16a85.41,85.41,0,0,1-3.62-8.2c-2.17-6,1-12.17,7.34-14.68,5.22-2.06,11.21.5,13.84,6Q599.55,579.77,612,605.7c3.07,6.39,6.12,12.8,9.31,19.13s8.47,10.06,15.61,10.1c6.55,0,11.85-2.93,14.79-9,2.63-5.41,2.25-11-.31-16.37q-8.07-17-16.21-33.85c-6.74-14-13.62-27.85-20.32-41.82-4.92-10.28-9.57-20.69-14.49-31-2.79-5.83-7.17-9.73-14-10.3-7.81-.65-13.37,2.82-16.76,9.56-5.18,10.29-10,20.75-15,31.13q-13.41,27.85-26.83,55.7c-7.31,15.16-14.76,30.26-21.87,45.52-4.67,10-11.79,17.53-22.08,21.33-15.44,5.72-29.55,2.92-41.95-8.12-12.62-11.23-16.08-31.78-8.72-46.65,12.48-25.21,24.36-50.73,36.51-76.12q17-35.5,34-71,16.26-33.83,32.6-67.6c2.07-4.29,4.1-8.59,6.21-12.85a11.73,11.73,0,0,1,12.58-6.66c4.6.77,9.42,5.59,9.86,10.43a12.12,12.12,0,0,1-1.17,5.76c-3.4,7.58-6.94,15.09-10.56,22.56-7.57,15.65-15.26,31.24-22.84,46.89s-15,31.15-22.45,46.72q-17.82,37-35.68,73.92c-4.08,8.48-8.17,17-12.18,25.48-2.23,4.77-4.57,9.52-6.37,14.46-2.92,8,.35,15.76,7.89,19.63,7.11,3.65,16,1.89,20.41-4.9,3.83-5.9,6.86-12.36,9.95-18.71,7.12-14.64,14-29.38,21.08-44.05,12.13-25.25,23.62-49,35.76-74.23,4.44-9.24,11.52-14.67,20.58-18.75a37.88,37.88,0,0,1,23.69-2.33c6.38,1.55,11.41,3.57,16.71,7.69,3.84,3,9.75,10.95,11.94,15.4,11.9,24.26,22,46.74,33.68,71.11,6.31,13.19,11.72,23.38,17.93,36.62C675.38,605,677.47,609.74,677.45,616.32Z"/><path d="M639.5,645.69a38.73,38.73,0,0,1-25.6-9.56,39.46,39.46,0,0,1-9.47-13c-6.38-13.54-13-27.25-19.36-40.51q-4.49-9.35-9-18.68l-.26-.54c-1.1-2.3-2.24-4.67-3.12-7.11-2.14-5.95.91-12.09,7.26-14.6,5.25-2.07,11.2.48,13.82,5.94q5.91,12.32,11.81,24.63,5.57,11.61,11.13,23.21l1.3,2.72c2.36,4.91,4.79,10,7.28,14.92C628.23,618.88,633,622,639,622h.11c5.87,0,10.29-2.7,12.78-7.83,2.2-4.51,2.1-9.35-.29-14.38-4.5-9.47-9.74-20.47-15-31.23q-3.93-8.13-7.9-16.23c-3.57-7.32-7.27-14.89-10.85-22.36-2.3-4.8-4.56-9.7-6.75-14.44s-4.37-9.44-6.62-14.13c-2.69-5.62-6.68-8.58-12.22-9-6.64-.56-11.57,2.25-14.65,8.36-3.21,6.4-6.34,13-9.36,19.34q-2.22,4.69-4.47,9.37-8.39,17.45-16.8,34.89l-7.95,16.51q-3,6.21-6,12.43c-4.69,9.66-9.54,19.66-14.15,29.56s-11.64,16.71-20.84,20.11c-14.5,5.37-27.8,2.8-39.54-7.65s-15.32-29.75-8.24-44c8-16.14,15.84-32.68,23.43-48.69Q478.83,531.77,484,521l4.07-8.51q13.64-28.5,27.32-57,10.39-21.63,20.84-43.25l10.88-22.56c1.33-2.77,2.7-5.63,4.09-8.43a11.64,11.64,0,0,1,12.48-6.59c4.78.79,9.36,5.64,9.79,10.36a12.12,12.12,0,0,1-1.15,5.74c-2.85,6.36-6,13.17-9.75,20.83q-5.24,10.83-10.54,21.64t-10.53,21.63q-5.94,12.25-11.81,24.54-4.44,9.28-8.91,18.56-8.86,18.41-17.76,36.79-7.58,15.71-15.16,31.42l-.18.37c-3.65,7.57-7.42,15.4-11.05,23.13l-.9,1.9c-1.75,3.69-3.55,7.5-4.95,11.37-2.53,6.94.17,13.65,6.87,17.1,6.41,3.29,14.05,1.47,17.76-4.24a142.26,142.26,0,0,0,8.31-15.49l.82-1.68c3.9-8,7.8-16.22,11.57-24.15Q520,566.22,524,558c5.72-11.91,11.29-23.45,16.86-35,5.33-11.05,10.66-22.11,16.13-33.5,3.8-7.9,9.79-13.36,19.4-17.7a35.85,35.85,0,0,1,22.4-2.19c6.62,1.61,11.18,3.71,15.73,7.25,3.71,2.88,9.19,10.29,11.25,14.5,6.46,13.16,12.47,26,18.29,38.47,4.11,8.79,8.35,17.88,12.79,27.14,2.63,5.51,5.13,10.52,7.55,15.36,2.88,5.78,5.86,11.75,9,18.44,2.06,4.39,3.91,8.83,3.9,14.89h0c-.22,17.13-7.47,29.06-22.16,36.48A34.65,34.65,0,0,1,639.5,645.69ZM583.73,542.64a8.56,8.56,0,0,0-3.15.61c-5.47,2.16-8.12,7.41-6.3,12.49.85,2.36,2,4.69,3.05,7l.26.54,9,18.68c6.39,13.26,13,27,19.37,40.52A37.53,37.53,0,0,0,615,634.89c10.57,9.5,27.12,11.92,39.33,5.76,14.08-7.11,21-18.56,21.25-35,0-5.72-1.69-9.8-3.74-14.18-3.13-6.67-6-12.37-9-18.4-2.42-4.85-4.91-9.86-7.56-15.38-4.44-9.27-8.68-18.37-12.79-27.16-5.82-12.43-11.83-25.29-18.28-38.44-2-4-7.34-11.25-10.78-13.92-4.35-3.39-8.72-5.4-15.1-6.95A34.07,34.07,0,0,0,577,473.29c-9.23,4.17-15,9.38-18.58,16.91-5.48,11.39-10.81,22.45-16.14,33.5-5.57,11.55-11.14,23.09-16.86,35q-4,8.22-7.87,16.48c-3.77,7.93-7.68,16.13-11.58,24.16l-.82,1.68a143.32,143.32,0,0,1-8.41,15.67c-4.18,6.42-12.74,8.49-19.9,4.81-7.38-3.79-10.46-11.48-7.68-19.13,1.43-3.94,3.25-7.8,5-11.52l.9-1.89c3.63-7.75,7.41-15.58,11.06-23.15l.18-.37q7.57-15.72,15.16-31.42l17.76-36.79q4.47-9.27,8.91-18.56Q534,466.39,540,454.13q5.25-10.85,10.54-21.64T561,410.86c3.7-7.65,6.88-14.45,9.73-20.79a10.43,10.43,0,0,0,1-4.91c-.37-4-4.37-8.2-8.41-8.88a10,10,0,0,0-10.73,5.7c-1.38,2.79-2.75,5.64-4.07,8.4L537.68,413q-10.42,21.63-20.84,43.25-13.7,28.49-27.32,57l-4.07,8.51q-5.15,10.75-10.24,21.53c-7.6,16-15.45,32.57-23.45,48.72-6.76,13.64-3.3,32.12,7.86,42s24,12.48,37.87,7.34c8.77-3.25,15.47-9.73,19.91-19.26,4.61-9.91,9.47-19.91,14.16-29.59q3-6.21,6-12.42l8-16.51,16.8-34.89q2.25-4.66,4.46-9.36c3-6.37,6.16-13,9.38-19.37,3.36-6.68,9-9.88,16.27-9.27,6.09.51,10.65,3.87,13.58,10,2.25,4.7,4.47,9.51,6.62,14.16s4.45,9.63,6.74,14.41c3.58,7.47,7.28,15,10.85,22.35,2.64,5.41,5.29,10.82,7.9,16.24,5.21,10.77,10.45,21.77,15,31.23,2.62,5.51,2.71,10.83.29,15.83a15.14,15.14,0,0,1-14.29,8.76H639c-6.7,0-11.93-3.42-15.14-9.78-2.5-5-4.93-10-7.29-14.94l-1.31-2.72L604.11,573q-5.9-12.32-11.8-24.62A9.68,9.68,0,0,0,583.73,542.64Z"/><path class="cls-3" d="M483.67,622.56a15.09,15.09,0,1,1,15.1-15.09A15.11,15.11,0,0,1,483.67,622.56Zm0-29.77a14.68,14.68,0,1,0,14.68,14.68A14.69,14.69,0,0,0,483.67,592.79Z"/><path class="cls-3" d="M484.14,644.85a36.92,36.92,0,1,1,36.92-36.92A37,37,0,0,1,484.14,644.85Zm0-73.42a36.51,36.51,0,1,0,36.51,36.5A36.54,36.54,0,0,0,484.14,571.43Z"/><path class="cls-3" d="M639,622.56a15.09,15.09,0,1,1,15.09-15.09A15.11,15.11,0,0,1,639,622.56Zm0-29.77a14.68,14.68,0,1,0,14.67,14.68A14.7,14.7,0,0,0,639,592.79Z"/><path class="cls-3" d="M639.43,644.85a36.92,36.92,0,1,1,36.92-36.92A37,37,0,0,1,639.43,644.85Zm0-73.42a36.51,36.51,0,1,0,36.51,36.5A36.54,36.54,0,0,0,639.43,571.43Z"/><path class="cls-3" d="M590.79,520.8a15.09,15.09,0,1,1,15.1-15.09A15.11,15.11,0,0,1,590.79,520.8Zm0-29.77a14.68,14.68,0,1,0,14.68,14.68A14.69,14.69,0,0,0,590.79,491Z"/><path class="cls-3" d="M590.91,542c-20.54,0-37.26-16.31-37.26-36.36s16.72-36.36,37.26-36.36,37.27,16.31,37.27,36.36S611.46,542,590.91,542Zm0-72.31c-20.31,0-36.85,16.13-36.85,35.95s16.54,36,36.85,36,36.85-16.13,36.85-36S611.23,469.67,590.91,469.67Z"/><rect class="cls-3" x="402.25" y="644.44" width="314.94" height="0.41"/><rect class="cls-3" x="420.86" y="541.57" width="277.97" height="0.41"/><rect class="cls-3" x="452.72" y="469.26" width="213.98" height="0.41"/><rect class="cls-3" x="468.79" y="374.89" width="181.85" height="0.41"/><rect class="cls-3" x="308.26" y="505.63" width="367.91" height="0.41" transform="translate(-176.9 730.41) rotate(-64.33)"/><rect class="cls-3" x="332.3" y="505.63" width="367.91" height="0.41" transform="translate(-163.27 752.07) rotate(-64.33)"/><rect class="cls-3" x="631.34" y="321.88" width="0.41" height="367.91" transform="translate(-156.56 322.49) rotate(-25.6)"/><rect class="cls-3" x="607.31" y="321.88" width="0.41" height="367.91" transform="translate(-158.91 312.11) rotate(-25.6)"/><rect class="cls-3" x="572.92" y="321.88" width="0.41" height="367.91" transform="translate(-162.29 297.25) rotate(-25.6)"/><rect class="cls-3" x="548.88" y="321.88" width="0.41" height="367.91" transform="translate(-164.65 286.87) rotate(-25.6)"/><g class="cls-4"><rect x="456.92" y="494.19" width="0.41" height="293.23" transform="translate(-319.23 510.92) rotate(-45)"/><rect x="459.77" y="491.33" width="0.41" height="293.23" transform="translate(-316.37 512.1) rotate(-45)"/><rect x="462.62" y="488.48" width="0.41" height="293.23" transform="translate(-313.52 513.28) rotate(-45)"/><rect x="465.47" y="485.63" width="0.41" height="293.23" transform="translate(-310.67 514.47) rotate(-45)"/><rect x="468.33" y="482.77" width="0.41" height="293.23" transform="translate(-307.82 515.65) rotate(-45)"/><rect x="471.18" y="479.92" width="0.41" height="293.23" transform="translate(-304.96 516.83) rotate(-45)"/><rect x="474.03" y="477.07" width="0.41" height="293.23" transform="translate(-302.11 518.01) rotate(-45)"/><rect x="476.88" y="474.22" width="0.41" height="293.23" transform="translate(-299.26 519.19) rotate(-45)"/><rect x="479.74" y="471.36" width="0.41" height="293.23" transform="translate(-296.4 520.37) rotate(-45)"/><rect x="482.59" y="468.51" width="0.41" height="293.23" transform="translate(-293.55 521.55) rotate(-45)"/><rect x="485.44" y="465.66" width="0.41" height="293.23" transform="translate(-290.7 522.74) rotate(-45)"/><rect x="488.3" y="462.8" width="0.41" height="293.23" transform="translate(-287.85 523.92) rotate(-45)"/><rect x="491.15" y="459.95" width="0.41" height="293.23" transform="translate(-284.99 525.1) rotate(-45)"/><rect x="494" y="457.1" width="0.41" height="293.23" transform="translate(-282.14 526.28) rotate(-45)"/><rect x="496.85" y="454.25" width="0.41" height="293.23" transform="translate(-279.29 527.46) rotate(-45)"/><rect x="499.71" y="451.39" width="0.41" height="293.23" transform="translate(-276.44 528.65) rotate(-45)"/><rect x="502.56" y="448.54" width="0.41" height="293.23" transform="translate(-273.58 529.82) rotate(-45)"/><rect x="505.41" y="445.69" width="0.41" height="293.23" transform="translate(-270.73 531.01) rotate(-45)"/><rect x="508.26" y="442.84" width="0.41" height="293.23" transform="translate(-267.88 532.19) rotate(-45)"/><rect x="511.12" y="439.98" width="0.41" height="293.23" transform="translate(-265.02 533.37) rotate(-45)"/><rect x="513.97" y="437.13" width="0.41" height="293.23" transform="translate(-262.17 534.55) rotate(-45)"/><rect x="516.82" y="434.28" width="0.41" height="293.23" transform="translate(-259.32 535.73) rotate(-45)"/><rect x="519.68" y="431.42" width="0.41" height="293.23" transform="translate(-256.47 536.92) rotate(-45)"/><rect x="522.53" y="428.57" width="0.41" height="293.23" transform="translate(-253.61 538.1) rotate(-45)"/><rect x="525.38" y="425.72" width="0.41" height="293.23" transform="translate(-250.76 539.28) rotate(-45)"/><rect x="528.23" y="422.87" width="0.41" height="293.23" transform="translate(-247.91 540.46) rotate(-45)"/><rect x="531.09" y="420.01" width="0.41" height="293.23" transform="translate(-245.06 541.64) rotate(-45)"/><rect x="533.94" y="417.16" width="0.41" height="293.23" transform="translate(-242.2 542.82) rotate(-45)"/><rect x="536.79" y="414.31" width="0.41" height="293.23" transform="translate(-239.35 544.01) rotate(-45)"/><rect x="539.64" y="411.46" width="0.41" height="293.23" transform="translate(-236.5 545.19) rotate(-45)"/><rect x="542.5" y="408.6" width="0.41" height="293.23" transform="translate(-233.64 546.37) rotate(-45)"/><rect x="545.35" y="405.75" width="0.41" height="293.23" transform="translate(-230.79 547.55) rotate(-45)"/><rect x="548.2" y="402.9" width="0.41" height="293.23" transform="translate(-227.94 548.73) rotate(-45)"/><rect x="551.06" y="400.04" width="0.41" height="293.23" transform="translate(-225.09 549.92) rotate(-45)"/><rect x="553.91" y="397.19" width="0.41" height="293.23" transform="translate(-222.23 551.1) rotate(-45)"/><rect x="556.76" y="394.34" width="0.41" height="293.23" transform="translate(-219.38 552.28) rotate(-45)"/><rect x="559.61" y="391.49" width="0.41" height="293.23" transform="translate(-216.53 553.46) rotate(-45)"/><rect x="562.47" y="388.63" width="0.41" height="293.23" transform="translate(-213.67 554.64) rotate(-45)"/><rect x="565.32" y="385.78" width="0.41" height="293.23" transform="translate(-210.82 555.82) rotate(-45)"/><rect x="568.17" y="382.93" width="0.41" height="293.23" transform="translate(-207.97 557) rotate(-45)"/><rect x="571.02" y="380.08" width="0.41" height="293.23" transform="translate(-205.12 558.19) rotate(-45)"/><rect x="573.88" y="377.22" width="0.41" height="293.23" transform="translate(-202.26 559.37) rotate(-45)"/><rect x="576.73" y="374.37" width="0.41" height="293.23" transform="translate(-199.41 560.55) rotate(-45)"/><rect x="579.58" y="371.52" width="0.41" height="293.23" transform="translate(-196.56 561.73) rotate(-45)"/><rect x="582.44" y="368.66" width="0.41" height="293.23" transform="translate(-193.71 562.91) rotate(-45)"/><rect x="585.29" y="365.81" width="0.41" height="293.23" transform="translate(-190.85 564.09) rotate(-45)"/><rect x="588.14" y="362.96" width="0.41" height="293.23" transform="translate(-188 565.28) rotate(-45)"/><rect x="590.99" y="360.11" width="0.41" height="293.23" transform="translate(-185.15 566.46) rotate(-45)"/><rect x="593.85" y="357.25" width="0.41" height="293.23" transform="translate(-182.29 567.64) rotate(-45)"/><rect x="596.7" y="354.4" width="0.41" height="293.23" transform="translate(-179.44 568.82) rotate(-45)"/><rect x="599.55" y="351.55" width="0.41" height="293.23" transform="translate(-176.59 570) rotate(-45)"/><rect x="602.41" y="348.7" width="0.41" height="293.23" transform="translate(-173.74 571.18) rotate(-45)"/><rect x="605.26" y="345.84" width="0.41" height="293.23" transform="translate(-170.88 572.37) rotate(-45)"/><rect x="608.11" y="342.99" width="0.41" height="293.23" transform="translate(-168.03 573.55) rotate(-45)"/><rect x="610.96" y="340.14" width="0.41" height="293.23" transform="translate(-165.18 574.73) rotate(-45)"/><rect x="613.82" y="337.28" width="0.41" height="293.23" transform="translate(-162.33 575.91) rotate(-45)"/><rect x="616.67" y="334.43" width="0.41" height="293.23" transform="translate(-159.47 577.09) rotate(-45)"/><rect x="619.52" y="331.58" width="0.41" height="293.23" transform="translate(-156.62 578.27) rotate(-45)"/><rect x="622.37" y="328.73" width="0.41" height="293.23" transform="translate(-153.77 579.46) rotate(-45)"/><rect x="625.23" y="325.87" width="0.41" height="293.23" transform="translate(-150.91 580.64) rotate(-45)"/><rect x="629.38" y="323.95" width="0.41" height="293.23" transform="translate(-148.34 583.01) rotate(-45)"/><rect x="632.23" y="321.1" width="0.41" height="293.23" transform="translate(-145.49 584.19) rotate(-45)"/><rect x="635.08" y="318.25" width="0.41" height="293.23" transform="translate(-142.64 585.37) rotate(-45)"/><rect x="637.93" y="315.39" width="0.41" height="293.23" transform="translate(-139.78 586.55) rotate(-45)"/><rect x="640.79" y="312.54" width="0.41" height="293.23" transform="translate(-136.93 587.73) rotate(-45)"/><rect x="643.64" y="309.69" width="0.41" height="293.23" transform="translate(-134.08 588.92) rotate(-45)"/><rect x="646.49" y="306.84" width="0.41" height="293.23" transform="translate(-131.22 590.1) rotate(-45)"/><rect x="649.34" y="303.98" width="0.41" height="293.23" transform="translate(-128.37 591.28) rotate(-45)"/><rect x="652.2" y="301.13" width="0.41" height="293.23" transform="translate(-125.52 592.46) rotate(-45)"/><rect x="655.05" y="298.28" width="0.41" height="293.23" transform="translate(-122.67 593.64) rotate(-45)"/></g><path class="cls-2" d="M366.18,175.06h12.3v3.81q0,6.06-3.57,8.73t-11.51,2.67h-20q-9.14,0-13.27-3.11T326,176.61V165.25q0-7.83,4-10.92t13.52-3.1h14.78q11.39,0,15.55,2.49t4.16,10v1.9h-12.3v-1.1a2.88,2.88,0,0,0-1.4-2.62,8.71,8.71,0,0,0-4.52-.88H346.61q-4.38,0-6.16,1.67c-1.17,1.12-1.76,3.15-1.76,6.12v3.7q0,4.88,1.52,6.44c1,1,3,1.55,6,1.55h13.14q4.29,0,5.51-1C365.66,178.8,366.11,177.33,366.18,175.06Z"/><path class="cls-2" d="M384.81,176.55V165.28q0-7.5,3.89-10.77t13.54-3.28h20.27q9.42,0,13.38,3.28c2.65,2.2,4,5.72,4,10.59v11.43q-.14,7.46-4.06,10.61t-13.16,3.13H402.24q-9.17,0-13.3-3.08T384.81,176.55Zm12.67-7.78v3.73q0,4.88,1.52,6.44t5.92,1.55h15.22c2.84,0,4.73-.55,5.65-1.65s1.4-3.15,1.4-6.11v-3.88q0-4.57-1.73-6.19c-1.13-1.1-3.11-1.65-5.92-1.65H405.32c-2.93,0-5,.56-6.13,1.67S397.48,165.83,397.48,168.77Z"/><path class="cls-2" d="M447.3,151.64h19l23.39,27.92V151.64H502v38.22H483L459.6,161.94v27.92H447.3Z"/><path class="cls-2" d="M507.2,151.64h46.9v9.48H536.8v28.74H524.5V161.12H507.2Z"/><path class="cls-2" d="M555.37,189.86l22.06-38.22h15.94l22.06,38.22H601.81l-3.92-6.78h-25L569,189.86Zm22.25-15h15.67l-7.89-14.07Z"/><path class="cls-2" d="M658.79,175.06h12.3v3.81q0,6.06-3.57,8.73T656,190.27H636q-9.13,0-13.27-3.11t-4.14-10.55V165.25q0-7.83,4-10.92t13.51-3.1H651q11.38,0,15.54,2.49t4.16,10v1.9H658.36v-1.1a2.87,2.87,0,0,0-1.41-2.62,8.67,8.67,0,0,0-4.51-.88H639.22q-4.38,0-6.17,1.67c-1.17,1.12-1.75,3.15-1.75,6.12v3.7q0,4.88,1.51,6.44t6,1.55h13.13c2.87,0,4.7-.34,5.52-1S658.72,177.33,658.79,175.06Z"/><path class="cls-2" d="M675.44,151.64h46.9v9.48H705v28.74h-12.3V161.12h-17.3Z"/><path class="cls-2" d="M726.69,176.55V165.28q0-7.5,3.89-10.77t13.54-3.28H764.4q9.4,0,13.38,3.28c2.64,2.2,4,5.72,4,10.59v11.43q-.13,7.46-4,10.61t-13.17,3.13H744.12q-9.17,0-13.3-3.08T726.69,176.55Zm12.68-7.78v3.73q0,4.88,1.51,6.44t5.92,1.55H762c2.84,0,4.73-.55,5.65-1.65s1.4-3.15,1.4-6.11v-3.88c0-3-.57-5.11-1.73-6.19s-3.11-1.65-5.92-1.65H747.21q-4.41,0-6.14,1.67C739.93,163.8,739.37,165.83,739.37,168.77Z"/><path class="cls-5" d="M263.4,926.25h1.7V945.6h11.77l-.31,1.49H263.4Z"/><path class="cls-5" d="M290.9,944.26a16.65,16.65,0,0,0,.22,2.83h-1.5a9,9,0,0,1-.28-2.3c-.53,1.11-1.91,2.65-5.14,2.65-3.63,0-5.2-2.23-5.2-4.46,0-3.28,2.66-4.76,7.36-4.76h3V936.7c0-1.49-.47-3.49-4-3.49-3.17,0-3.64,1.58-4,2.8h-1.57c.19-1.63,1.26-4.17,5.58-4.17,3.57,0,5.57,1.43,5.57,4.71Zm-1.53-4.76H286.3c-3.48,0-5.64.86-5.64,3.42,0,1.87,1.41,3.16,3.6,3.16,4.48,0,5.11-2.83,5.11-6.05Z"/><path class="cls-5" d="M316.18,946.08c0,4.76-2.22,7.26-6.77,7.26-4.07,0-5.76-2.17-6.14-4.44h1.6c.57,2.06,2.35,3,4.61,3,4.07,0,5.2-2.5,5.2-6.28v-1.55c-.85,1.93-2.38,3-5.23,3-3.67,0-6.49-2.83-6.49-7.45,0-5,3-7.8,6.7-7.8,3.2,0,4.58,1.43,5,2.62,0-.86.06-1.9.09-2.26h1.47c0,.54-.06,2.89-.06,4.32Zm-11.56-6.5c0,3.55,2,6.11,5,6.11,3.92,0,5.11-2.47,5.11-6.34s-1.25-6.11-5-6.11S304.62,936.19,304.62,939.58Z"/><path class="cls-5" d="M321.31,947.09V925.15h1.57v21.94Z"/><path class="cls-5" d="M340.7,939.61c0,4.14-2.41,7.83-7.08,7.83-4.22,0-6.86-3.3-6.86-7.8,0-4.25,2.48-7.8,7-7.8C338,931.84,340.7,934.94,340.7,939.61Zm-12.28,0c0,3.55,2,6.4,5.33,6.4s5.29-2.64,5.29-6.4c0-3.51-1.88-6.4-5.35-6.4S328.42,936.07,328.42,939.64Z"/><path class="cls-5" d="M344.59,936.25c0-2.5,0-3.57,0-4h1.54c0,.48.06,1.43.06,3.34a5.92,5.92,0,0,1,5.45-3.7v1.61a5.49,5.49,0,0,0-5.45,5.9v7.74h-1.56Z"/><path class="cls-5" d="M354.48,925.15h1.57V928h-1.57Zm0,7.05h1.57v14.89h-1.57Z"/><path class="cls-5" d="M371.71,944.26a16.65,16.65,0,0,0,.22,2.83h-1.5a9.33,9.33,0,0,1-.29-2.3c-.53,1.11-1.91,2.65-5.13,2.65-3.64,0-5.2-2.23-5.2-4.46,0-3.28,2.66-4.76,7.36-4.76h3V936.7c0-1.49-.47-3.49-4-3.49-3.16,0-3.63,1.58-4,2.8h-1.56c.19-1.63,1.25-4.17,5.57-4.17,3.58,0,5.58,1.43,5.58,4.71Zm-1.53-4.76h-3.07c-3.48,0-5.64.86-5.64,3.42,0,1.87,1.41,3.16,3.6,3.16,4.48,0,5.11-2.83,5.11-6.05Z"/><path class="cls-5" d="M385.52,947.09V926.25H388c3.41,5,11.43,16.64,12.81,18.9h0c-.19-3-.16-6.07-.16-9.47v-9.43h1.73v20.84h-2.32c-3.26-4.83-11.4-16.94-13-19.23h0c.16,2.73.12,5.77.12,9.55v9.68Z"/><path class="cls-5" d="M420.76,939.61c0,4.14-2.41,7.83-7.08,7.83-4.23,0-6.86-3.3-6.86-7.8,0-4.25,2.47-7.8,7-7.8C418,931.84,420.76,934.94,420.76,939.61Zm-12.28,0c0,3.55,2,6.4,5.32,6.4s5.3-2.64,5.3-6.4c0-3.51-1.88-6.4-5.36-6.4S408.48,936.07,408.48,939.64Z"/><path class="cls-5" d="M423.7,947.09v-3.84h1.57v3.84Z"/><path class="cls-5" d="M441.12,947.09V929.37a14.28,14.28,0,0,1-4.64,2.3v-1.4a17.4,17.4,0,0,0,4.92-2.92h1.34v19.74Z"/><path class="cls-5" d="M460.28,927.5V929a48.18,48.18,0,0,0-8.45,18.13h-1.66A49.27,49.27,0,0,1,458.53,929H447.25V927.5Z"/><path class="cls-5" d="M457.49,950.48a18.3,18.3,0,0,0,2.2-7.2h1.56a18,18,0,0,1-2.35,7.2Z"/><path class="cls-5" d="M474.09,941.49c.66,2.77,2.6,4.41,6.21,4.41,4,0,5.54-1.91,5.54-4.17s-1.09-3.81-5.92-4.94c-4.64-1.11-6.64-2.53-6.64-5.54,0-2.74,2.1-5.3,6.8-5.3s6.86,2.8,7.14,5.33h-1.75c-.51-2.23-2-3.84-5.49-3.84-3.16,0-4.88,1.4-4.88,3.72s1.44,3.19,5.48,4.14c6.17,1.46,7.08,3.81,7.08,6.31,0,3.07-2.35,5.72-7.43,5.72-5.48,0-7.48-3-7.89-5.84Z"/><path class="cls-5" d="M502.66,944.26a16.65,16.65,0,0,0,.22,2.83h-1.5a9.33,9.33,0,0,1-.29-2.3c-.53,1.11-1.91,2.65-5.13,2.65-3.64,0-5.2-2.23-5.2-4.46,0-3.28,2.66-4.76,7.36-4.76h3V936.7c0-1.49-.47-3.49-4-3.49-3.16,0-3.63,1.58-4,2.8h-1.56c.19-1.63,1.25-4.17,5.57-4.17,3.58,0,5.58,1.43,5.58,4.71Zm-1.53-4.76h-3.07c-3.48,0-5.64.86-5.64,3.42,0,1.87,1.41,3.16,3.6,3.16,4.48,0,5.11-2.83,5.11-6.05Z"/><path class="cls-5" d="M507.83,936c0-1.31,0-2.56,0-3.75h1.54c.06.48.09,2.41.06,2.83a5.12,5.12,0,0,1,5.2-3.19c2.79,0,5.27,1.49,5.27,5.6v9.65h-1.57v-9.41c0-2.65-1.16-4.38-3.89-4.38-3.72,0-5,3-5,6.2v7.59h-1.56Z"/><path class="cls-5" d="M552.62,937.5c0-4.08,0-8,.12-10.06h-.09c-.88,2.8-5.33,13.07-8.11,19.65h-1.66c-2.1-5.09-6.71-16.53-7.71-19.68h-.06c.15,2.38.22,7.23.22,10.81v8.87h-1.7V926.25h2.54c3,7.14,6.8,16.49,7.61,18.84h.07c.5-1.52,4.88-11.91,7.95-18.84h2.51v20.84h-1.69Z"/><path class="cls-5" d="M559.94,925.15h1.57V928h-1.57Zm0,7.05h1.57v14.89h-1.57Z"/><path class="cls-5" d="M578.61,946.08c0,4.76-2.22,7.26-6.77,7.26-4.07,0-5.76-2.17-6.13-4.44h1.59c.57,2.06,2.35,3,4.61,3,4.07,0,5.2-2.5,5.2-6.28v-1.55c-.85,1.93-2.38,3-5.23,3-3.67,0-6.49-2.83-6.49-7.45,0-5,3-7.8,6.71-7.8,3.19,0,4.57,1.43,5,2.62,0-.86.06-1.9.09-2.26h1.47c0,.54-.06,2.89-.06,4.32Zm-11.56-6.5c0,3.55,2,6.11,5,6.11,3.92,0,5.11-2.47,5.11-6.34s-1.25-6.11-5-6.11S567.05,936.19,567.05,939.58Z"/><path class="cls-5" d="M595.46,942.74c0,1.46,0,3.78,0,4.35H594a23.79,23.79,0,0,1-.09-2.59c-.66,1.75-2.26,2.94-5,2.94-2.25,0-5.14-.83-5.14-5.38V932.2h1.54v9.5c0,2.17.72,4.29,3.82,4.29,3.51,0,4.83-1.88,4.83-6.14V932.2h1.56Z"/><path class="cls-5" d="M600.94,939.82C601,943.66,603,946,606,946a4.41,4.41,0,0,0,4.51-2.79h1.59c-.65,2-2.31,4.19-6.17,4.19-4.76,0-6.61-3.9-6.61-7.68,0-4.25,2.23-7.92,6.8-7.92,4.82,0,6.36,4,6.36,6.76,0,.42,0,.84,0,1.22Zm9.93-1.31c0-2.94-1.72-5.27-4.79-5.27-3.23,0-4.7,2.15-5,5.27Z"/><path class="cls-5" d="M616.44,947.09V925.15H618v21.94Z"/><path class="cls-5" d="M634.05,939.88l-2.79,7.21h-1.72l8.05-20.84h2l8.4,20.84h-1.85l-2.85-7.21Zm8.67-1.49c-2.44-6.19-3.69-9.17-4.13-10.56h0c-.54,1.57-1.94,5.26-3.92,10.56Z"/><path class="cls-5" d="M653.56,932.2v15.93c0,4-1.07,5.21-3.82,5.21-.07,0-.69,0-.88-.06v-1.4a6.28,6.28,0,0,0,.72,0c2.22,0,2.41-1.19,2.41-3.6V932.2ZM652,928v-2.88h1.57V928Z"/><path class="cls-5" d="M670.41,942.74c0,1.46,0,3.78,0,4.35h-1.5a23,23,0,0,1-.1-2.59c-.65,1.75-2.25,2.94-5,2.94-2.25,0-5.14-.83-5.14-5.38V932.2h1.54v9.5c0,2.17.72,4.29,3.82,4.29,3.51,0,4.82-1.88,4.82-6.14V932.2h1.57Z"/><path class="cls-5" d="M675.36,943c.53,1.93,2,3.1,4.44,3.1,2.79,0,3.92-1.23,3.92-2.89s-.75-2.53-4.26-3.34c-4-.92-5-2.08-5-4.05s1.63-4,5.17-4,5.23,2.06,5.48,4.17H683.5c-.28-1.25-1.31-2.8-4-2.8s-3.51,1.28-3.51,2.47c0,1.37.76,2.06,3.86,2.77,4.42,1,5.51,2.38,5.51,4.62,0,2.71-2.32,4.37-5.61,4.37-3.57,0-5.57-1.78-6-4.46Z"/><path class="cls-5" d="M700.79,942.71a6,6,0,0,1-6.08,4.73c-3.91,0-6.7-2.76-6.7-7.74,0-4.07,2.29-7.86,6.89-7.86,4,0,5.61,2.68,5.89,4.77h-1.6a4.18,4.18,0,0,0-4.32-3.37c-3.32,0-5.2,2.68-5.2,6.4,0,3.55,1.75,6.4,5,6.4,2.29,0,3.67-1.1,4.48-3.33Z"/><path class="cls-5" d="M717.27,939.61c0,4.14-2.42,7.83-7.08,7.83-4.23,0-6.86-3.3-6.86-7.8,0-4.25,2.47-7.8,7-7.8C714.51,931.84,717.27,934.94,717.27,939.61Zm-12.28,0c0,3.55,2,6.4,5.32,6.4s5.3-2.64,5.3-6.4c0-3.51-1.88-6.4-5.36-6.4S705,936.07,705,939.64Z"/><path class="cls-5" d="M746.33,941.52c-1,3.3-3.6,5.81-8.24,5.81-6.29,0-9.62-4.77-9.62-10.63,0-5.63,3.26-10.75,9.65-10.75,4.73,0,7.52,2.5,8.24,6h-1.69c-1-2.71-2.85-4.49-6.64-4.49-5.45,0-7.74,4.73-7.74,9.23s2.26,9.17,7.87,9.17a6.42,6.42,0,0,0,6.48-4.32Z"/><path class="cls-5" d="M749.55,947.09v-3.84h1.57v3.84Z"/><path class="cls-5" d="M755.76,926.25h7.83c4,0,6.76,2.11,6.76,5.8s-2.72,6-7,6h-5.89v9.08h-1.72Zm1.72,10.27h6c3.54,0,5-1.79,5-4.41,0-2.8-1.95-4.37-4.89-4.37h-6.17Z"/><path class="cls-5" d="M770.6,947.09v-3.84h1.57v3.84Z"/><path class="cls-5" d="M788,947.09V929.37a14.28,14.28,0,0,1-4.64,2.3v-1.4a17.4,17.4,0,0,0,4.92-2.92h1.35v19.74Z"/><path class="cls-5" d="M804.08,947.09v-5.48h-9.93v-1.46l9.9-12.65h1.63v12.68h2.79l-.22,1.43h-2.57v5.48Zm0-12.83c0-1.11,0-3.55.07-4.86-.85,1.43-5.77,7.65-8.15,10.78h8.08Z"/><path class="cls-5" d="M823.38,927.5V929a48.2,48.2,0,0,0-8.46,18.13h-1.66A49.44,49.44,0,0,1,821.62,929H810.35V927.5Z"/><path class="cls-5" d="M839.23,937.14c0,4.5-1.23,10.3-6.74,10.3s-6.7-5.32-6.7-10.15,1.44-10.15,6.79-10.15S839.23,932.5,839.23,937.14Zm-11.69.18c0,3.81.85,8.7,5,8.7s5-4.68,5-8.88c0-3.75-.81-8.57-4.88-8.57C828.36,928.57,827.54,933,827.54,937.32Z"/><path class="cls-5" d="M856.08,937.14c0,4.5-1.22,10.3-6.74,10.3-5.35,0-6.7-5.32-6.7-10.15s1.44-10.15,6.8-10.15S856.08,932.5,856.08,937.14Zm-11.69.18c0,3.81.85,8.7,5,8.7s5-4.68,5-8.88c0-3.75-.81-8.57-4.88-8.57C845.21,928.57,844.39,933,844.39,937.32Z"/><path class="cls-5" d="M334.19,975.6l-2.79,7.21h-1.72L337.73,962h2l8.4,20.84h-1.85l-2.85-7.21Zm8.67-1.49c-2.44-6.19-3.69-9.17-4.13-10.57h0c-.53,1.58-1.94,5.27-3.92,10.57Z"/><path class="cls-5" d="M351.51,982.81V960.87h1.56v21.94Z"/><path class="cls-5" d="M369.74,978.43a6,6,0,0,1-6.08,4.73c-3.92,0-6.7-2.77-6.7-7.74,0-4.08,2.28-7.86,6.89-7.86,4,0,5.61,2.68,5.89,4.77h-1.6a4.18,4.18,0,0,0-4.32-3.37c-3.32,0-5.2,2.68-5.2,6.4,0,3.55,1.75,6.4,5,6.4,2.29,0,3.67-1.1,4.48-3.33Z"/><path class="cls-5" d="M384.24,980a15.64,15.64,0,0,0,.22,2.83H383a9.62,9.62,0,0,1-.28-2.3c-.53,1.11-1.91,2.65-5.14,2.65-3.63,0-5.2-2.23-5.2-4.46,0-3.28,2.67-4.77,7.37-4.77h3v-1.51c0-1.49-.47-3.49-4-3.49-3.16,0-3.63,1.58-4,2.8h-1.56c.18-1.64,1.25-4.17,5.57-4.17,3.57,0,5.58,1.43,5.58,4.71Zm-1.54-4.77h-3.07c-3.47,0-5.64.87-5.64,3.43,0,1.87,1.41,3.15,3.61,3.15,4.48,0,5.1-2.82,5.1-6Z"/><path class="cls-5" d="M389.4,982.81V960.87H391v21.94Z"/><path class="cls-5" d="M408.2,960.87v17.65c0,1.43,0,2.8,0,4.29h-1.5a24.3,24.3,0,0,1-.1-2.51c-.78,1.82-2.54,2.86-5.26,2.86-4.07,0-6.52-3.15-6.52-7.62s2.67-8,6.93-8c3.13,0,4.38,1.28,4.85,2.24v-8.93Zm-11.69,14.61c0,4.08,2.23,6.28,4.92,6.28,4.14,0,5.26-2.71,5.26-6.75,0-3.84-1-6-5-6C398.61,969,396.51,971.31,396.51,975.48Z"/><path class="cls-5" d="M419.54,960.57l-4.67,4.67h-1.69l4.29-4.67Zm-6.21,7.35h1.57v14.89h-1.57Z"/><path class="cls-5" d="M430.56,980a16.65,16.65,0,0,0,.22,2.83h-1.5a9.42,9.42,0,0,1-.29-2.3c-.53,1.11-1.91,2.65-5.13,2.65-3.64,0-5.2-2.23-5.2-4.46,0-3.28,2.66-4.77,7.36-4.77h3v-1.51c0-1.49-.47-3.49-4-3.49-3.16,0-3.63,1.58-4,2.8h-1.57c.19-1.64,1.25-4.17,5.57-4.17,3.58,0,5.58,1.43,5.58,4.71ZM429,975.21H426c-3.48,0-5.64.87-5.64,3.43,0,1.87,1.41,3.15,3.6,3.15,4.48,0,5.11-2.82,5.11-6Z"/><path class="cls-5" d="M448.85,963.46h-7.36V962H458v1.49h-7.4v19.35h-1.72Z"/><path class="cls-5" d="M460.44,982.81V960.87H462v21.94Z"/><path class="cls-5" d="M477.67,980a15.64,15.64,0,0,0,.22,2.83h-1.51a9.62,9.62,0,0,1-.28-2.3c-.53,1.11-1.91,2.65-5.14,2.65-3.63,0-5.2-2.23-5.2-4.46,0-3.28,2.67-4.77,7.36-4.77h3v-1.51c0-1.49-.47-3.49-4-3.49-3.16,0-3.63,1.58-4,2.8h-1.56c.18-1.64,1.25-4.17,5.57-4.17,3.57,0,5.58,1.43,5.58,4.71Zm-1.54-4.77h-3.07c-3.48,0-5.64.87-5.64,3.43,0,1.87,1.41,3.15,3.61,3.15,4.48,0,5.1-2.82,5.1-6Z"/><path class="cls-5" d="M482.83,982.81V960.87h1.57v21.94Z"/><path class="cls-5" d="M491.1,980.6v8.16h-1.56V971.58c0-1.22,0-2.53,0-3.66H491c.06.57.06,1.46.06,2.68a5.8,5.8,0,0,1,5.51-3c3.7,0,6.27,3,6.27,7.42,0,5.35-3,8.18-6.8,8.18C493.33,983.16,491.88,982,491.1,980.6ZM501.22,975c0-3.46-1.75-6-4.86-6-3.79,0-5.35,2.26-5.35,6.31s1.22,6.46,5.14,6.46C499.4,981.76,501.22,979.14,501.22,975Z"/><path class="cls-5" d="M517.54,980a15.64,15.64,0,0,0,.22,2.83h-1.51a9.62,9.62,0,0,1-.28-2.3c-.53,1.11-1.91,2.65-5.14,2.65-3.63,0-5.2-2.23-5.2-4.46,0-3.28,2.67-4.77,7.37-4.77h3v-1.51c0-1.49-.47-3.49-4-3.49-3.16,0-3.63,1.58-4,2.8h-1.56c.18-1.64,1.25-4.17,5.57-4.17,3.57,0,5.58,1.43,5.58,4.71ZM516,975.21h-3.07c-3.47,0-5.64.87-5.64,3.43,0,1.87,1.41,3.15,3.61,3.15,4.48,0,5.1-2.82,5.1-6Z"/><path class="cls-5" d="M522.7,971.67c0-1.31,0-2.56,0-3.75h1.54c.06.48.09,2.41.06,2.83a5.11,5.11,0,0,1,5.2-3.19c2.79,0,5.26,1.49,5.26,5.6v9.65h-1.56V973.4c0-2.65-1.16-4.38-3.89-4.38-3.73,0-5,3-5,6.19v7.6H522.7Z"/><path class="cls-5" d="M538.77,982.81V979h1.57v3.84Z"/><path class="cls-5" d="M570,977.24c-1,3.3-3.6,5.8-8.24,5.8-6.3,0-9.62-4.76-9.62-10.62,0-5.63,3.26-10.75,9.65-10.75,4.73,0,7.52,2.5,8.24,6h-1.69c-1-2.71-2.85-4.49-6.64-4.49-5.45,0-7.74,4.73-7.74,9.23s2.26,9.17,7.86,9.17a6.43,6.43,0,0,0,6.49-4.32Z"/><path class="cls-5" d="M574.13,960.87h1.57v2.88h-1.57Zm0,7h1.57v14.89h-1.57Z"/><path class="cls-5" d="M592.55,978.46c0,1.46,0,3.78,0,4.35h-1.5a23,23,0,0,1-.1-2.59c-.65,1.75-2.25,2.94-5,2.94-2.25,0-5.14-.83-5.14-5.39v-9.85h1.54v9.5c0,2.17.72,4.28,3.82,4.28,3.51,0,4.82-1.87,4.82-6.13v-7.65h1.57Z"/><path class="cls-5" d="M609.78,960.87v17.65c0,1.43,0,2.8,0,4.29H608.3c-.06-.36-.09-1.76-.09-2.51-.78,1.82-2.54,2.86-5.26,2.86-4.08,0-6.52-3.15-6.52-7.62s2.66-8,6.92-8c3.14,0,4.39,1.28,4.86,2.24v-8.93Zm-11.69,14.61c0,4.08,2.23,6.28,4.92,6.28,4.13,0,5.26-2.71,5.26-6.75,0-3.84-1-6-5-6C600.19,969,598.09,971.31,598.09,975.48Z"/><path class="cls-5" d="M625.44,980a15.64,15.64,0,0,0,.22,2.83h-1.51a9.62,9.62,0,0,1-.28-2.3c-.53,1.11-1.91,2.65-5.14,2.65-3.63,0-5.2-2.23-5.2-4.46,0-3.28,2.67-4.77,7.36-4.77h3v-1.51c0-1.49-.47-3.49-4-3.49-3.16,0-3.63,1.58-4,2.8h-1.57c.19-1.64,1.26-4.17,5.58-4.17,3.57,0,5.58,1.43,5.58,4.71Zm-1.54-4.77h-3.07c-3.48,0-5.64.87-5.64,3.43,0,1.87,1.41,3.15,3.61,3.15,4.48,0,5.1-2.82,5.1-6Z"/><path class="cls-5" d="M642.69,960.87v17.65c0,1.43,0,2.8,0,4.29h-1.51c-.06-.36-.09-1.76-.09-2.51-.79,1.82-2.54,2.86-5.26,2.86-4.08,0-6.52-3.15-6.52-7.62s2.66-8,6.92-8c3.13,0,4.39,1.28,4.86,2.24v-8.93ZM631,975.48c0,4.08,2.22,6.28,4.92,6.28,4.13,0,5.26-2.71,5.26-6.75,0-3.84-1-6-5-6C633.11,969,631,971.31,631,975.48Z"/><path class="cls-5" d="M668.06,960.87v17.65c0,1.43,0,2.8,0,4.29h-1.5c-.06-.36-.09-1.76-.09-2.51-.79,1.82-2.54,2.86-5.27,2.86-4.07,0-6.51-3.15-6.51-7.62s2.66-8,6.92-8c3.13,0,4.39,1.28,4.86,2.24v-8.93Zm-11.68,14.61c0,4.08,2.22,6.28,4.92,6.28,4.13,0,5.26-2.71,5.26-6.75,0-3.84-1-6-5-6C658.48,969,656.38,971.31,656.38,975.48Z"/><path class="cls-5" d="M673.54,975.54c0,3.84,2.07,6.22,5.08,6.22a4.41,4.41,0,0,0,4.51-2.79h1.6c-.66,2-2.32,4.19-6.18,4.19-4.76,0-6.61-3.9-6.61-7.68,0-4.25,2.23-7.92,6.8-7.92,4.83,0,6.36,4,6.36,6.76,0,.42,0,.84,0,1.22Zm9.93-1.31c0-2.94-1.72-5.27-4.79-5.27-3.23,0-4.7,2.15-5,5.27Z"/><path class="cls-5" d="M716.55,973.22c0-4.08,0-8,.12-10.06h-.09c-.88,2.8-5.33,13.07-8.11,19.65h-1.66c-2.1-5.1-6.71-16.53-7.71-19.68H699c.15,2.38.22,7.23.22,10.8v8.88h-1.69V962h2.53c3,7.14,6.8,16.49,7.61,18.84h.07c.5-1.52,4.88-11.91,8-18.84h2.51v20.84h-1.69Z"/><path class="cls-5" d="M724.09,975.54c0,3.84,2.07,6.22,5.08,6.22a4.4,4.4,0,0,0,4.51-2.79h1.6a6,6,0,0,1-6.17,4.19c-4.77,0-6.61-3.9-6.61-7.68,0-4.25,2.22-7.92,6.79-7.92,4.83,0,6.36,4,6.36,6.76,0,.42,0,.84,0,1.22Zm9.93-1.31c0-2.94-1.72-5.27-4.79-5.27-3.23,0-4.7,2.15-5,5.27Zm.16-13.66-4.67,4.67h-1.69l4.29-4.67Z"/><path class="cls-5" d="M739.38,967.92c2.6,3.66,3.73,5.3,4.35,6.19h0c.76-1,2.32-3.15,4.58-6.19h1.78l-5.45,7.2,5.55,7.69h-1.88c-2.26-3.19-3.89-5.45-4.64-6.49h0c-.6.86-2,2.88-4.57,6.49h-1.82l5.54-7.57-5.29-7.32Z"/><path class="cls-5" d="M753.25,960.87h1.57v2.88h-1.57Zm0,7h1.57v14.89h-1.57Z"/><path class="cls-5" d="M771.48,978.43a6,6,0,0,1-6.08,4.73c-3.91,0-6.7-2.77-6.7-7.74,0-4.08,2.29-7.86,6.89-7.86,4,0,5.61,2.68,5.89,4.77h-1.6a4.18,4.18,0,0,0-4.32-3.37c-3.32,0-5.2,2.68-5.2,6.4,0,3.55,1.76,6.4,5,6.4,2.29,0,3.67-1.1,4.48-3.33Z"/><path class="cls-5" d="M788,975.33c0,4.14-2.42,7.83-7.08,7.83-4.23,0-6.86-3.3-6.86-7.8,0-4.25,2.47-7.8,7-7.8C785.2,967.56,788,970.66,788,975.33Zm-12.28,0c0,3.55,2,6.4,5.32,6.4s5.3-2.65,5.3-6.4c0-3.51-1.88-6.4-5.36-6.4S775.68,971.79,775.68,975.36Z"/><path class="cls-5" d="M423.76,999.17H416.4v-1.48h16.48v1.48h-7.39v19.35h-1.73Z"/><path class="cls-5" d="M432.6,1011.26c0,3.84,2.06,6.22,5.07,6.22a4.4,4.4,0,0,0,4.51-2.8h1.6a6,6,0,0,1-6.17,4.2c-4.76,0-6.61-3.9-6.61-7.68,0-4.26,2.22-7.92,6.79-7.92,4.83,0,6.36,4,6.36,6.76,0,.42,0,.83,0,1.22Zm9.93-1.31c0-3-1.73-5.27-4.8-5.27-3.22,0-4.7,2.15-5,5.27Z"/><path class="cls-5" d="M448.1,1018.52V996.58h1.57v21.94Z"/><path class="cls-5" d="M453.8,1018.52v-3.84h1.56v3.84Z"/><path class="cls-5" d="M477,1002.12v7.35h7.73V1011H477v7.56h-1.57V1011h-7.7v-1.49h7.7v-7.35Z"/><path class="cls-5" d="M501.13,1000.39h-8.87c-.22,1.94-.84,5.63-1.1,6.85a5.78,5.78,0,0,1,4.73-1.93c3.58,0,6.11,2.29,6.11,6.49,0,3.84-2.06,7.08-6.67,7.08-3.41,0-5.86-1.9-6.45-5.12h1.66a4.71,4.71,0,0,0,4.88,3.69c3.26,0,4.89-2.17,4.89-5.56,0-2.86-1.31-5.12-4.51-5.12-2.88,0-4.07,1.13-5,3l-1.57-.41c.66-2.62,1.38-8.07,1.66-10.39h10.44Z"/><path class="cls-5" d="M504.69,1018.52v-.08c0-2.45,2.2-5.48,6.3-8.52,3.57-2.65,4.48-3.45,4.48-5.92,0-2.15-1.25-4-4.23-4-2.82,0-4.29,1.28-4.82,4.14h-1.6c.41-3.28,2.57-5.57,6.42-5.57,4.17,0,6,2.71,6,5.33,0,3-1.34,4.05-5.17,7-3,2.36-4.88,4.23-5.51,6.14H518l-.28,1.45Z"/><path class="cls-5" d="M541.31,1000.39h-8.86c-.22,1.94-.85,5.63-1.1,6.85a5.77,5.77,0,0,1,4.73-1.93c3.57,0,6.11,2.29,6.11,6.49,0,3.84-2.07,7.08-6.67,7.08-3.42,0-5.86-1.9-6.46-5.12h1.66a4.71,4.71,0,0,0,4.89,3.69c3.26,0,4.89-2.17,4.89-5.56,0-2.86-1.32-5.12-4.51-5.12-2.89,0-4.08,1.13-5,3l-1.56-.41c.66-2.62,1.38-8.07,1.66-10.39h10.43Z"/><path class="cls-5" d="M558.1,1000.39h-8.87c-.22,1.94-.84,5.63-1.09,6.85a5.77,5.77,0,0,1,4.73-1.93c3.57,0,6.11,2.29,6.11,6.49,0,3.84-2.07,7.08-6.68,7.08-3.41,0-5.85-1.9-6.45-5.12h1.66a4.71,4.71,0,0,0,4.89,3.69c3.26,0,4.88-2.17,4.88-5.56,0-2.86-1.31-5.12-4.51-5.12-2.88,0-4.07,1.13-5,3l-1.56-.41c.65-2.62,1.37-8.07,1.66-10.39h10.43Z"/><path class="cls-5" d="M582.4,998.94v1.45a48.5,48.5,0,0,0-8.46,18.13h-1.66a49.61,49.61,0,0,1,8.37-18.13H569.37v-1.45Z"/><path class="cls-5" d="M596.94,1000.39h-8.87c-.22,1.94-.85,5.63-1.1,6.85a5.78,5.78,0,0,1,4.73-1.93c3.58,0,6.11,2.29,6.11,6.49,0,3.84-2.06,7.08-6.67,7.08-3.41,0-5.86-1.9-6.45-5.12h1.66a4.71,4.71,0,0,0,4.88,3.69c3.26,0,4.89-2.17,4.89-5.56,0-2.86-1.31-5.12-4.51-5.12-2.88,0-4.07,1.13-5,3l-1.57-.41c.66-2.62,1.38-8.07,1.66-10.39h10.44Z"/><path class="cls-5" d="M614.6,1008.58c0,4.5-1.22,10.3-6.73,10.3s-6.71-5.33-6.71-10.15,1.44-10.15,6.8-10.15S614.6,1003.94,614.6,1008.58Zm-11.68.18c0,3.81.84,8.69,5,8.69s5-4.67,5-8.87c0-3.75-.82-8.57-4.89-8.57C603.73,1000,602.92,1004.41,602.92,1008.76Z"/><path class="cls-5" d="M630.67,1000.39H621.8c-.22,1.94-.84,5.63-1.09,6.85a5.77,5.77,0,0,1,4.73-1.93c3.57,0,6.1,2.29,6.1,6.49,0,3.84-2.06,7.08-6.67,7.08-3.41,0-5.86-1.9-6.45-5.12h1.66a4.71,4.71,0,0,0,4.89,3.69c3.25,0,4.88-2.17,4.88-5.56,0-2.86-1.31-5.12-4.51-5.12-2.88,0-4.07,1.13-5,3l-1.57-.41c.66-2.62,1.38-8.07,1.67-10.39h10.43Z"/><path class="cls-5" d="M635.08,1013.05a5.44,5.44,0,0,1,4-5.24,4.44,4.44,0,0,1-3.07-4.2c0-2.83,2-5,6-5,3.64,0,5.74,2.2,5.74,5a4.3,4.3,0,0,1-3,4.17,5.31,5.31,0,0,1,3.88,5.24c0,3.54-2.82,5.89-6.83,5.89C637.9,1018.88,635.08,1016.53,635.08,1013.05Zm11.81-.06c0-2.86-1.85-4.44-5-4.44-3.54,0-5.08,2-5.08,4.44s1.79,4.49,5.05,4.49C644.82,1017.48,646.89,1015.88,646.89,1013Zm-9.21-9.47c0,1.88,1.19,3.6,4.29,3.6,2.88,0,4.07-1.43,4.07-3.48,0-1.88-1.22-3.66-4.13-3.66C638.81,1000,637.68,1001.53,637.68,1003.52Z"/><path class="cls-5" d="M651.59,1018.52v-.08c0-2.45,2.19-5.48,6.29-8.52,3.57-2.65,4.48-3.45,4.48-5.92,0-2.15-1.25-4-4.23-4-2.82,0-4.29,1.28-4.82,4.14h-1.6c.41-3.28,2.57-5.57,6.42-5.57,4.17,0,6,2.71,6,5.33,0,3-1.35,4.05-5.17,7-3,2.36-4.89,4.23-5.52,6.14h11.53l-.28,1.45Z"/><path class="cls-5" d="M668.22,1018.52v-.08c0-2.45,2.19-5.48,6.29-8.52,3.58-2.65,4.49-3.45,4.49-5.92,0-2.15-1.26-4-4.23-4-2.82,0-4.3,1.28-4.83,4.14h-1.6c.41-3.28,2.57-5.57,6.43-5.57,4.16,0,6,2.71,6,5.33,0,3-1.35,4.05-5.17,7-3,2.36-4.89,4.23-5.51,6.14h11.52l-.28,1.45Z"/><path class="cls-5" d="M688.92,1018.52v-17.71a14.11,14.11,0,0,1-4.63,2.29v-1.4a17.07,17.07,0,0,0,4.91-2.91h1.35v19.73Z"/><path class="cls-5" d="M317.6,1112.56c0,3.84,2.07,6.22,5.08,6.22a4.41,4.41,0,0,0,4.51-2.8h1.59c-.65,2-2.31,4.2-6.17,4.2-4.76,0-6.61-3.9-6.61-7.68,0-4.26,2.23-7.92,6.8-7.92,4.83,0,6.36,4,6.36,6.76,0,.41,0,.83,0,1.22Zm9.93-1.31c0-3-1.72-5.27-4.79-5.27-3.23,0-4.7,2.14-5.05,5.27Z"/><path class="cls-5" d="M340.75,1111.49v1.45h-7.9v-1.45Z"/><path class="cls-5" d="M344.88,1108.78c0-1.28,0-2.68,0-3.84h1.53c0,.5.1,1.78.07,2.65a4.89,4.89,0,0,1,4.7-3,4.44,4.44,0,0,1,4.54,3,5.35,5.35,0,0,1,5.1-3c2.42,0,4.92,1.31,4.92,5.45v9.79h-1.56v-9.61c0-2-.76-4.17-3.67-4.17s-4.42,2.32-4.42,5.21v8.57h-1.53v-9.58c0-2.18-.69-4.2-3.57-4.2-3,0-4.51,2.56-4.51,5.59v8.19h-1.57Z"/><path class="cls-5" d="M381.4,1117a16.65,16.65,0,0,0,.22,2.83h-1.5a9,9,0,0,1-.28-2.29c-.54,1.1-1.91,2.65-5.14,2.65-3.64,0-5.2-2.23-5.2-4.47,0-3.27,2.66-4.76,7.36-4.76h3v-1.52c0-1.49-.47-3.48-4-3.48-3.16,0-3.63,1.58-4,2.8h-1.57c.19-1.64,1.25-4.17,5.58-4.17,3.57,0,5.57,1.43,5.57,4.7Zm-1.53-4.76H376.8c-3.48,0-5.64.86-5.64,3.42,0,1.88,1.41,3.16,3.6,3.16,4.48,0,5.11-2.83,5.11-6Z"/><path class="cls-5" d="M386.57,1097.88h1.56v2.89h-1.56Zm0,7.06h1.56v14.88h-1.56Z"/><path class="cls-5" d="M393.27,1119.82v-21.94h1.57v21.94Z"/><path class="cls-5" d="M400.72,1108.78v-3.84h1.51v3.84Zm0,11V1116h1.51v3.87Z"/><path class="cls-5" d="M427.16,1115.45a6,6,0,0,1-6.08,4.73c-3.91,0-6.7-2.77-6.7-7.74,0-4.08,2.29-7.86,6.89-7.86,4,0,5.61,2.68,5.89,4.76h-1.6a4.18,4.18,0,0,0-4.32-3.36c-3.32,0-5.2,2.68-5.2,6.4,0,3.54,1.75,6.4,5,6.4,2.29,0,3.67-1.1,4.48-3.33Z"/><path class="cls-5" d="M443.63,1112.35c0,4.14-2.41,7.83-7.07,7.83-4.23,0-6.87-3.31-6.87-7.8,0-4.26,2.48-7.8,7-7.8C440.88,1104.58,443.63,1107.67,443.63,1112.35Zm-12.28,0c0,3.54,2,6.4,5.33,6.4s5.29-2.65,5.29-6.4c0-3.51-1.88-6.4-5.35-6.4S431.35,1108.81,431.35,1112.38Z"/><path class="cls-5" d="M447.52,1108.69c0-1.31,0-2.56,0-3.75H449c.06.47.09,2.41.06,2.82a5.13,5.13,0,0,1,5.2-3.18c2.79,0,5.27,1.49,5.27,5.6v9.64H458v-9.41c0-2.65-1.16-4.37-3.89-4.37-3.72,0-5,3-5,6.19v7.59h-1.56Z"/><path class="cls-5" d="M462.24,1104.94h2.91v-4.65h1.57v4.65h3.72v1.4h-3.72V1116c0,1.67.37,2.62,1.88,2.62a6.1,6.1,0,0,0,1.62-.18v1.31a5.69,5.69,0,0,1-1.94.27c-2,0-3.13-1-3.13-3.33v-10.36h-2.91Z"/><path class="cls-5" d="M484.38,1117a16.65,16.65,0,0,0,.22,2.83h-1.5a9,9,0,0,1-.28-2.29c-.54,1.1-1.92,2.65-5.14,2.65-3.64,0-5.2-2.23-5.2-4.47,0-3.27,2.66-4.76,7.36-4.76h3v-1.52c0-1.49-.47-3.48-4.05-3.48-3.16,0-3.63,1.58-4,2.8h-1.57c.19-1.64,1.25-4.17,5.58-4.17,3.57,0,5.57,1.43,5.57,4.7Zm-1.53-4.76h-3.07c-3.48,0-5.64.86-5.64,3.42,0,1.88,1.41,3.16,3.6,3.16,4.48,0,5.11-2.83,5.11-6Z"/><path class="cls-5" d="M501.08,1115.45c-.76,2.61-2.57,4.73-6.08,4.73-3.92,0-6.71-2.77-6.71-7.74,0-4.08,2.29-7.86,6.9-7.86a5.51,5.51,0,0,1,5.89,4.76h-1.6a4.18,4.18,0,0,0-4.32-3.36c-3.33,0-5.2,2.68-5.2,6.4,0,3.54,1.75,6.4,5,6.4,2.29,0,3.66-1.1,4.48-3.33Z"/><path class="cls-5" d="M502.73,1104.94h2.92v-4.65h1.56v4.65h3.73v1.4h-3.73V1116c0,1.67.38,2.62,1.88,2.62a6.17,6.17,0,0,0,1.63-.18v1.31a5.69,5.69,0,0,1-1.94.27c-2,0-3.13-1-3.13-3.33v-10.36h-2.92Z"/><path class="cls-5" d="M526.63,1112.35c0,4.14-2.41,7.83-7.08,7.83-4.23,0-6.86-3.31-6.86-7.8,0-4.26,2.48-7.8,7-7.8C523.88,1104.58,526.63,1107.67,526.63,1112.35Zm-12.28,0c0,3.54,2,6.4,5.33,6.4s5.29-2.65,5.29-6.4c0-3.51-1.88-6.4-5.35-6.4S514.35,1108.81,514.35,1112.38Z"/><path class="cls-5" d="M549.81,1123c-1.56,1.1-4.07,2-7.8,2-7,0-11.87-4.52-11.87-11.85s5-13.13,13.34-13.13c6.27,0,11.38,3.81,11.38,10.3,0,5.42-3,8.67-6.61,8.67-1.76,0-3-.75-2.82-2.62a5.09,5.09,0,0,1-4.64,2.62c-2.44,0-4.39-1.7-4.39-5.21,0-4.59,2.79-8.13,6.46-8.13,2.85,0,3.76,1.64,4,2.68l.59-2.38H549l-2,8.66c-.5,2.23.22,2.92,1.44,2.92,2.76,0,4.67-2.77,4.67-7.09,0-5.44-3.91-9-9.77-9-7.08,0-11.44,5-11.47,11.67,0,6,4,10.33,10.22,10.33a13.51,13.51,0,0,0,7.17-1.81Zm-11.75-9.38c0,2.56,1.13,3.9,3,3.9,2.26,0,4-1.37,4.82-5.12.82-3.42-.21-5.33-3-5.33C539.82,1107.05,538.06,1110.09,538.06,1113.6Z"/><path class="cls-5" d="M571.61,1118.81c0,4.76-2.23,7.26-6.77,7.26-4.07,0-5.76-2.17-6.14-4.43h1.6c.56,2,2.35,3,4.61,3,4.07,0,5.2-2.5,5.2-6.28v-1.55c-.85,1.94-2.39,3-5.24,3-3.66,0-6.48-2.83-6.48-7.44,0-5,3-7.8,6.7-7.8,3.2,0,4.58,1.43,5,2.62,0-.86.06-1.91.09-2.26h1.47c0,.53-.06,2.88-.06,4.31Zm-11.56-6.49c0,3.54,2,6.1,5,6.1,3.92,0,5.11-2.47,5.11-6.34s-1.26-6.1-5-6.1C561.52,1106,560.05,1108.93,560.05,1112.32Z"/><path class="cls-5" d="M576.74,1109c0-2.51,0-3.58,0-4h1.54c0,.47.06,1.43.06,3.33a5.92,5.92,0,0,1,5.45-3.69v1.61a5.48,5.48,0,0,0-5.45,5.89v7.74h-1.57Z"/><path class="cls-5" d="M598.26,1115.47c0,1.46,0,3.79,0,4.35h-1.5a23.79,23.79,0,0,1-.09-2.59c-.66,1.76-2.26,3-5.05,3-2.25,0-5.14-.84-5.14-5.39v-9.85h1.54v9.49c0,2.18.72,4.29,3.82,4.29,3.51,0,4.83-1.88,4.83-6.13v-7.65h1.56Z"/><path class="cls-5" d="M605,1117.62v8.16H603.4V1108.6c0-1.22,0-2.53,0-3.66h1.53c.06.56.06,1.46.06,2.68a5.8,5.8,0,0,1,5.52-3c3.69,0,6.26,3,6.26,7.41,0,5.36-3,8.19-6.8,8.19C607.19,1120.18,605.75,1119,605,1117.62Zm10.12-5.57c0-3.45-1.75-6-4.85-6-3.79,0-5.36,2.26-5.36,6.31s1.22,6.46,5.14,6.46C613.26,1118.78,615.08,1116.16,615.08,1112.05Z"/><path class="cls-5" d="M633.53,1112.35c0,4.14-2.41,7.83-7.08,7.83-4.23,0-6.86-3.31-6.86-7.8,0-4.26,2.47-7.8,7-7.8C630.77,1104.58,633.53,1107.67,633.53,1112.35Zm-12.28,0c0,3.54,2,6.4,5.33,6.4s5.29-2.65,5.29-6.4c0-3.51-1.88-6.4-5.36-6.4S621.25,1108.81,621.25,1112.38Z"/><path class="cls-5" d="M648.16,1117a15.64,15.64,0,0,0,.22,2.83h-1.51a9.5,9.5,0,0,1-.28-2.29c-.53,1.1-1.91,2.65-5.14,2.65-3.63,0-5.2-2.23-5.2-4.47,0-3.27,2.66-4.76,7.36-4.76h3v-1.52c0-1.49-.47-3.48-4-3.48-3.17,0-3.64,1.58-4,2.8H637c.19-1.64,1.26-4.17,5.58-4.17,3.57,0,5.58,1.43,5.58,4.7Zm-1.54-4.76h-3.07c-3.48,0-5.64.86-5.64,3.42,0,1.88,1.41,3.16,3.6,3.16,4.48,0,5.11-2.83,5.11-6Z"/><path class="cls-5" d="M653.32,1119.82v-21.94h1.57v21.94Z"/><path class="cls-5" d="M660,1097.88h1.57v2.89H660Zm0,7.06h1.57v14.88H660Z"/><path class="cls-5" d="M667.07,1112.56c0,3.84,2.07,6.22,5.08,6.22a4.41,4.41,0,0,0,4.51-2.8h1.59c-.65,2-2.31,4.2-6.17,4.2-4.76,0-6.61-3.9-6.61-7.68,0-4.26,2.23-7.92,6.8-7.92,4.82,0,6.36,4,6.36,6.76,0,.41,0,.83,0,1.22Zm9.93-1.31c0-3-1.72-5.27-4.79-5.27-3.23,0-4.7,2.14-5.05,5.27Z"/><path class="cls-5" d="M682.45,1109c0-2.51,0-3.58,0-4H684c0,.47.06,1.43.06,3.33a5.94,5.94,0,0,1,5.46-3.69v1.61a5.49,5.49,0,0,0-5.46,5.89v7.74h-1.56Z"/><path class="cls-5" d="M690.06,1119.82V1116h1.57v3.84Z"/><path class="cls-5" d="M707.38,1115.45a6,6,0,0,1-6.07,4.73c-3.92,0-6.71-2.77-6.71-7.74,0-4.08,2.29-7.86,6.89-7.86,4,0,5.61,2.68,5.89,4.76h-1.59a4.19,4.19,0,0,0-4.33-3.36c-3.32,0-5.2,2.68-5.2,6.4,0,3.54,1.76,6.4,5,6.4,2.28,0,3.66-1.1,4.48-3.33Z"/><path class="cls-5" d="M723.86,1112.35c0,4.14-2.41,7.83-7.08,7.83-4.23,0-6.86-3.31-6.86-7.8,0-4.26,2.47-7.8,7-7.8C721.1,1104.58,723.86,1107.67,723.86,1112.35Zm-12.28,0c0,3.54,2,6.4,5.32,6.4s5.3-2.65,5.3-6.4c0-3.51-1.88-6.4-5.36-6.4S711.58,1108.81,711.58,1112.38Z"/><path class="cls-5" d="M727.74,1108.78c0-1.28,0-2.68,0-3.84h1.53c0,.5.1,1.78.06,2.65a4.9,4.9,0,0,1,4.7-3,4.45,4.45,0,0,1,4.55,3,5.35,5.35,0,0,1,5.1-3c2.41,0,4.92,1.31,4.92,5.45v9.79H747v-9.61c0-2-.75-4.17-3.66-4.17s-4.42,2.32-4.42,5.21v8.57h-1.53v-9.58c0-2.18-.69-4.2-3.57-4.2-3,0-4.52,2.56-4.52,5.59v8.19h-1.56Z"/><path class="cls-5" d="M317.29,1145.34c2.32,7.68,3.66,12.09,3.91,13.4h0c.26-1.19,1.82-5.87,4.27-13.4h1.69c2.91,9.2,3.79,11.85,4.07,13h0c.44-1.64,1.16-3.87,4-13H337L332,1160.23h-1.72c-1.69-5.27-3.73-11.73-4-13.1h0c-.32,1.46-2.1,6.79-4.14,13.1h-1.88l-4.6-14.89Z"/><path class="cls-5" d="M340.31,1145.34c2.32,7.68,3.66,12.09,3.91,13.4h0c.25-1.19,1.81-5.87,4.26-13.4h1.69c2.91,9.2,3.79,11.85,4.07,13h0c.44-1.64,1.16-3.87,4-13H360l-4.95,14.89h-1.72c-1.69-5.27-3.73-11.73-4-13.1h0c-.32,1.46-2.1,6.79-4.14,13.1h-1.88l-4.6-14.89Z"/><path class="cls-5" d="M363.33,1145.34c2.32,7.68,3.66,12.09,3.92,13.4h0c.25-1.19,1.81-5.87,4.26-13.4h1.69c2.91,9.2,3.79,11.85,4.07,13h0c.44-1.64,1.16-3.87,4-13H383l-4.95,14.89h-1.72c-1.69-5.27-3.73-11.73-4-13.1h0c-.31,1.46-2.1,6.79-4.14,13.1h-1.88l-4.6-14.89Z"/><path class="cls-5" d="M384,1160.23v-3.84h1.57v3.84Z"/><path class="cls-5" d="M402,1159.22c0,4.76-2.22,7.26-6.77,7.26-4.07,0-5.76-2.17-6.14-4.44h1.6c.57,2.06,2.35,3,4.61,3,4.07,0,5.2-2.5,5.2-6.28v-1.55c-.85,1.94-2.38,3-5.23,3-3.67,0-6.49-2.83-6.49-7.44,0-5,3-7.8,6.7-7.8,3.2,0,4.58,1.42,5,2.62,0-.87.06-1.91.09-2.27H402c0,.54-.06,2.89-.06,4.32Zm-11.56-6.49c0,3.54,2,6.1,5,6.1,3.92,0,5.11-2.47,5.11-6.34s-1.25-6.11-5-6.11S390.42,1149.33,390.42,1152.73Z"/><path class="cls-5" d="M407.12,1149.39c0-2.5,0-3.57,0-4.05h1.54c0,.48.06,1.43.06,3.34a5.89,5.89,0,0,1,5.45-3.69v1.6a5.49,5.49,0,0,0-5.45,5.9v7.74h-1.56Z"/><path class="cls-5" d="M428.63,1155.88c0,1.46,0,3.78,0,4.35h-1.51a23.79,23.79,0,0,1-.09-2.59c-.66,1.75-2.26,2.94-5.05,2.94-2.25,0-5.13-.83-5.13-5.38v-9.86h1.53v9.5c0,2.17.72,4.29,3.82,4.29,3.51,0,4.83-1.88,4.83-6.14v-7.65h1.56Z"/><path class="cls-5" d="M435.34,1158v8.16h-1.57V1149c0-1.22,0-2.53,0-3.66h1.53a26.67,26.67,0,0,1,.07,2.68,5.8,5.8,0,0,1,5.51-3c3.7,0,6.26,2.94,6.26,7.41,0,5.36-3,8.18-6.79,8.18C437.56,1160.58,436.12,1159.42,435.34,1158Zm10.11-5.56c0-3.46-1.75-6-4.85-6-3.79,0-5.36,2.27-5.36,6.32s1.22,6.46,5.14,6.46C443.64,1159.19,445.45,1156.57,445.45,1152.46Z"/><path class="cls-5" d="M463.9,1152.75c0,4.14-2.41,7.83-7.08,7.83-4.23,0-6.86-3.3-6.86-7.79,0-4.26,2.48-7.8,7-7.8C461.14,1145,463.9,1148.08,463.9,1152.75Zm-12.28,0c0,3.54,2,6.4,5.33,6.4s5.29-2.65,5.29-6.4c0-3.52-1.88-6.41-5.36-6.41S451.62,1149.21,451.62,1152.79Z"/><path class="cls-5" d="M478.53,1157.4a15.64,15.64,0,0,0,.22,2.83h-1.51a9.5,9.5,0,0,1-.28-2.29c-.53,1.1-1.91,2.64-5.14,2.64-3.63,0-5.2-2.23-5.2-4.46,0-3.28,2.67-4.76,7.37-4.76h3v-1.52c0-1.49-.47-3.49-4-3.49-3.16,0-3.63,1.58-4,2.8h-1.56c.18-1.63,1.25-4.16,5.57-4.16,3.57,0,5.58,1.42,5.58,4.7Zm-1.54-4.76h-3.07c-3.47,0-5.64.86-5.64,3.42,0,1.88,1.41,3.16,3.61,3.16,4.48,0,5.1-2.83,5.1-6Z"/><path class="cls-5" d="M483.69,1160.23v-21.94h1.57v21.94Z"/><path class="cls-5" d="M490.4,1138.29H492v2.88H490.4Zm0,7H492v14.89H490.4Z"/><path class="cls-5" d="M497.44,1153c0,3.84,2.07,6.23,5.08,6.23a4.41,4.41,0,0,0,4.51-2.8h1.6a6,6,0,0,1-6.17,4.19c-4.77,0-6.61-3.9-6.61-7.68,0-4.25,2.22-7.91,6.79-7.91,4.83,0,6.36,4,6.36,6.75,0,.42,0,.84,0,1.22Zm9.93-1.31c0-2.94-1.72-5.27-4.79-5.27-3.23,0-4.7,2.15-5,5.27Z"/><path class="cls-5" d="M512.82,1149.39c0-2.5,0-3.57,0-4.05h1.53c0,.48.07,1.43.07,3.34a5.89,5.89,0,0,1,5.45-3.69v1.6a5.49,5.49,0,0,0-5.45,5.9v7.74h-1.57Z"/><path class="cls-5" d="M520.43,1160.23v-3.84H522v3.84Z"/><path class="cls-5" d="M537.75,1155.85a5.94,5.94,0,0,1-6.07,4.73c-3.92,0-6.71-2.76-6.71-7.74,0-4.07,2.29-7.85,6.9-7.85a5.5,5.5,0,0,1,5.88,4.76h-1.59a4.18,4.18,0,0,0-4.33-3.37c-3.32,0-5.2,2.68-5.2,6.41,0,3.54,1.76,6.4,5,6.4,2.28,0,3.66-1.11,4.48-3.34Z"/><path class="cls-5" d="M554.23,1152.75c0,4.14-2.41,7.83-7.08,7.83-4.23,0-6.86-3.3-6.86-7.79,0-4.26,2.47-7.8,7-7.8C551.47,1145,554.23,1148.08,554.23,1152.75Zm-12.28,0c0,3.54,2,6.4,5.32,6.4s5.3-2.65,5.3-6.4c0-3.52-1.88-6.41-5.36-6.41S542,1149.21,542,1152.79Z"/><path class="cls-5" d="M558.11,1149.18c0-1.28,0-2.68,0-3.84h1.53c0,.51.1,1.79.07,2.65a4.88,4.88,0,0,1,4.7-3,4.45,4.45,0,0,1,4.54,2.94A5.34,5.34,0,0,1,574,1145c2.42,0,4.92,1.3,4.92,5.44v9.8h-1.56v-9.62c0-2-.76-4.17-3.67-4.17s-4.42,2.33-4.42,5.21v8.58h-1.53v-9.59c0-2.17-.69-4.2-3.57-4.2-3,0-4.51,2.56-4.51,5.6v8.19h-1.57Z"/><path class="cls-6" d="M441.22,709.19V707h12.57v3q0,3.65-1.5,5.25c-1,1.06-2.73,1.6-5.22,1.6H436.43c-2.53,0-4.33-.55-5.42-1.65s-1.64-3-1.64-5.58v-5.73c0-2.52.61-4.3,1.7-5.36S434,697,436.53,697h9.68q7.37,0,7.37,5.34v.73h-2.46c0-1.69-.4-2.77-1.2-3.23s-2.62-.7-5.51-.7H436.7a5.25,5.25,0,0,0-3.63,1A4.32,4.32,0,0,0,432,703.4v6.82a5,5,0,0,0,1,3.45c.67.71,1.91,1.07,3.71,1.07h10a5.4,5.4,0,0,0,3.34-.84,3.44,3.44,0,0,0,1.07-2.87v-1.84Z"/><path class="cls-6" d="M458.19,716.68V697.2h15.72q3.61,0,5,1.15c.93.77,1.39,2.19,1.39,4.27v1.58a3.72,3.72,0,0,1-.85,2.75,4.9,4.9,0,0,1-2.8,1c2.26.36,3.4,1.62,3.4,3.77v4.91h-2.46v-4.31a3.39,3.39,0,0,0-.84-2.68,5,5,0,0,0-3.16-.72H460.82v7.71Zm2.63-9.86h12.57a6.89,6.89,0,0,0,3.18-.59,2.34,2.34,0,0,0,1.1-2.27v-1.72a2.38,2.38,0,0,0-1.05-2.32,8.14,8.14,0,0,0-3.63-.58H460.82Z"/><path class="cls-6" d="M484.82,697.2h2.63v14.38a3,3,0,0,0,.87,2.48,5.86,5.86,0,0,0,3.33.68h9.11a5.92,5.92,0,0,0,3.26-.65,2.78,2.78,0,0,0,.91-2.36V697.2h2.63v14.53c0,2-.53,3.32-1.57,4.06a9,9,0,0,1-5.06,1.1h-9.36a9.47,9.47,0,0,1-5.17-1.09c-1.06-.73-1.58-2.14-1.58-4.22Z"/><path class="cls-6" d="M512.75,697.2h16.37a5.65,5.65,0,0,1,3.89,1.12q1.23,1.13,1.23,4.11v.8c0,2.23-.44,3.74-1.31,4.54s-2.45,1.2-4.73,1.2H515.39v7.71h-2.64Zm2.64,2.14v7.48h12.8q3.42,0,3.42-2.78V702.2a2.69,2.69,0,0,0-.79-2.27,4.74,4.74,0,0,0-2.76-.59Z"/><path class="cls-6" d="M537.4,709.82v-5.76q0-3.76,1.63-5.41c1.09-1.11,2.9-1.66,5.41-1.66h11q3.85,0,5.4,1.72c1,1.15,1.56,2.95,1.56,5.42v5.63q0,3.81-1.58,5.46t-5.38,1.67h-11c-2.51,0-4.32-.55-5.41-1.65S537.4,712.32,537.4,709.82Zm2.63-6.48v7.17a4.17,4.17,0,0,0,1.1,3.23,5.13,5.13,0,0,0,3.53,1h10.59a4.94,4.94,0,0,0,3.51-1,4.31,4.31,0,0,0,1-3.17v-7.16a4.19,4.19,0,0,0-1.09-3.26,5,5,0,0,0-3.47-1H544.66c-1.74,0-2.95.36-3.62,1.06A4.39,4.39,0,0,0,540,703.34Z"/><path class="cls-2" d="M564.57,716.68l10.69-19.48H583l10.69,19.48h-6.6l-1.9-3.46H573.05l-1.88,3.46ZM575.35,709h7.59l-3.82-7.18Z"/><path class="cls-2" d="M595.67,697.2h6v14.49H615v5H595.67Z"/><path class="cls-2" d="M617.81,697.2h6v19.48h-6Z"/><path class="cls-2" d="M628.14,716.68V697.2h21.25v4.51H634.1v3.09h14.45v4.06H634.1V712h15.66v4.68Z"/><path class="cls-2" d="M653.32,716.68V697.2H671a7,7,0,0,1,4.46,1.17c1,.89,1.58,2.4,1.58,4.51v1.35a5.36,5.36,0,0,1-1,3.6,5.47,5.47,0,0,1-2.37,1.19,5.56,5.56,0,0,1,2.17,1,4.44,4.44,0,0,1,1.09,3.38v3.33h-6v-2.23a3.63,3.63,0,0,0-.51-2.24,2.78,2.78,0,0,0-2.15-.61h-9.1v5.08ZM659.27,702v4.74h9.64a2.91,2.91,0,0,0,1.87-.46,2.55,2.55,0,0,0,.53-1.91,2.59,2.59,0,0,0-.51-1.86,3.11,3.11,0,0,0-2.13-.51Z"/><path class="cls-6" d="M687,700.71h-2.49a3.19,3.19,0,0,1-3.18-3.18v-2.48a3.19,3.19,0,0,1,3.18-3.19H687a3.19,3.19,0,0,1,3.18,3.19v2.48A3.19,3.19,0,0,1,687,700.71Zm-2.49-8.45a2.79,2.79,0,0,0-2.78,2.79v2.48a2.79,2.79,0,0,0,2.78,2.79H687a2.8,2.8,0,0,0,2.79-2.79v-2.48a2.8,2.8,0,0,0-2.79-2.79Z"/><path class="cls-6" d="M683.63,698.11v-3.93h3.18a1.6,1.6,0,0,1,1,.23,1.06,1.06,0,0,1,.28.86v.32a.78.78,0,0,1-.17.56,1,1,0,0,1-.57.21.71.71,0,0,1,.69.76v1h-.5v-.87a.67.67,0,0,0-.17-.54,1,1,0,0,0-.63-.15h-2.59v1.56Zm.53-2h2.54a1.39,1.39,0,0,0,.65-.12.47.47,0,0,0,.22-.46v-.35a.47.47,0,0,0-.21-.46,1.62,1.62,0,0,0-.74-.12h-2.46Z"/></svg>