<svg xmlns="http://www.w3.org/2000/svg" xmlns:xlink="http://www.w3.org/1999/xlink" viewBox="0 0 1080 1350"><defs><style>.cls-1{isolation:isolate;}.cls-2,.cls-3{mix-blend-mode:multiply;}.cls-2{fill:url(#Degradado_sin_nombre_45);}.cls-3{fill:url(#Degradado_sin_nombre_45-2);}.cls-4{fill:#fff;fill-rule:evenodd;}</style><linearGradient id="Degradado_sin_nombre_45" x1="504.11" y1="511.69" x2="610.34" y2="652.37" gradientUnits="userSpaceOnUse"><stop offset="0" stop-color="#7818c6"/><stop offset="0.54" stop-color="#ff65a5"/><stop offset="1" stop-color="#ffc641"/></linearGradient><linearGradient id="Degradado_sin_nombre_45-2" x1="475.59" y1="560.32" x2="680.53" y2="560.32" xlink:href="#Degradado_sin_nombre_45"/></defs><g class="cls-1"><g id="Capa_1" data-name="Capa 1"><path class="cls-2" d="M519.67,626.13a34.35,34.35,0,0,1,4.38,1.62c6.4,2.9,11.41,8.1,16.67,12.76,9.37,8.3,20.18,14.71,30.94,20.86,10.4,5.94,25.94,9.09,37.43,4.93,13.32-4.82,18.63-18.42,22.32-31.59,5.45-19.5,9-40.84,1.62-63.67-5.38-16.56-15.4-31.35-26.2-44.84-4.92-6.14-8.63-13-14-18.63-6.58-6.94-13.63-13.41-20.68-19.86-3.87-3.56-7.81-7.15-12.51-9.5s-9.67-3.29-14.73-4c-7.64-1-15.47-1.33-23,.26s-14.82,5.22-19.82,11.08c-9.72,11.39-9,28-12.83,42.48-4,15-13.25,28.43-15.18,43.8A47.27,47.27,0,0,0,507.29,623C511.36,624.22,515.61,624.91,519.67,626.13Z"/><path class="cls-3" d="M628.23,578.33a86.92,86.92,0,0,0-2.56,19.91c-.24,9,1.65,18.27,6.66,25.76a15.92,15.92,0,0,0,5.08,5.15,7.79,7.79,0,0,0,7,.61c2.37-1.1,3.78-3.59,4.57-6.08s1.11-5.13,2.09-7.55c2.49-6.08,8.65-9.7,14.44-12.82a40.27,40.27,0,0,0,7.82-5A21.14,21.14,0,0,0,680,585.1a55.72,55.72,0,0,0,.06-14.82c-1.35-7.64-7-14.65-14.52-16.55-7.32-1.85-15,1.13-21.44,5.09a39.49,39.49,0,0,0-12,10.71A29.52,29.52,0,0,0,628.23,578.33Zm-67.68-79.17a20.12,20.12,0,0,0,20.64-12,12.74,12.74,0,0,0,1.07-5,14.74,14.74,0,0,0-2.63-7.45c-1.83-2.91-4.55-5.75-8-5.84a10.49,10.49,0,0,0-4.41,1.07,25.76,25.76,0,0,0-12.38,10.35C550.92,487.16,551,497.89,560.55,499.16ZM533.46,617.72c-5.71-1.75-12.47-2.22-17.14,1.5a17.78,17.78,0,0,0-4.56,6.14c-2.37,4.75-3.77,10.27-2.34,15.38s6.36,9.45,11.64,8.88h.24c4.57,3.36,11.38,2.4,15.76-1.2s6.6-9.29,7.31-14.92c.4-3.13.34-6.48-1.2-9.24C541.22,620.77,537.29,618.89,533.46,617.72Zm-35.11-50.3A58.18,58.18,0,0,0,506,586.85c10.73,16.83,27.69,21,44,30.08,13.58,7.52,23.23,21.4,41,19.42a34.54,34.54,0,0,0,27.26-20.07c7.69-17.58.2-40.54,12.31-55.42,5-6.11,12.43-9.6,18.17-15,11.2-10.52,14.49-28.55,7.72-42.34s-23-22.22-38.22-19.79c-14.38,2.31-26.14,13-40.25,16.55-15.29,3.88-31.84-.89-47,3.35C505.59,510.71,493,541.68,498.35,567.42Zm-21.27-22.23c1.09,2.29,3.26,4.24,5.79,4.33,2.8.1,5.17-2,6.88-4.22,5.09-6.54,7.2-14.88,8.63-23a18,18,0,0,0,.35-5.61,6.4,6.4,0,0,0-2.85-4.66c-2.44-1.4-5.61-.38-7.84,1.35-3,2.31-5,5.68-6.82,9C477.33,529.13,473.36,537.37,477.08,545.19Zm199.16.23a7.58,7.58,0,0,0-3.1-8,12.4,12.4,0,0,0-5.51-1.67,6.47,6.47,0,0,0-3,.17c-2.15.79-3,3.49-2.67,5.76C662.93,548.22,673.88,554.67,676.24,545.42ZM501.29,635.36c2.31-.24,3.88-2.91,3.35-5.16a5.85,5.85,0,0,0-5.07-4.13,5.23,5.23,0,0,0-2,.13,4.51,4.51,0,0,0-3,5.26,5,5,0,0,0,5,3.59m96.91-152.87a10.45,10.45,0,0,0,1.17-4.44,4.05,4.05,0,0,0-2.29-3.73,4.23,4.23,0,0,0-3.33.32A6.35,6.35,0,0,0,588.5,480a5.44,5.44,0,0,0,4.19,5.11,4.77,4.77,0,0,0,5.42-3.48c.1-.46-.37-1.17-.66-.79M556.1,649.34A8,8,0,0,0,554.73,638a2.47,2.47,0,0,0-1.31-.53c-.88,0-1.55.75-2.09,1.44l-3.1,4a7.58,7.58,0,0,0-1.45,2.42,4.44,4.44,0,0,0,2.16,4.92,5.75,5.75,0,0,0,5.54-.19,8.33,8.33,0,0,0,3.53-4.46"/><path class="cls-4" d="M535,568.11a27.91,27.91,0,1,1,27.88,27.95A27.95,27.95,0,0,1,535,568.11Zm56.73-54.61H534.07a25.89,25.89,0,0,0-25.83,25.83V597a25.94,25.94,0,0,0,25.83,25.83h57.64A25.9,25.9,0,0,0,617.54,597V539.33a25.86,25.86,0,0,0-25.83-25.83ZM534.07,520h57.64a19.39,19.39,0,0,1,19.37,19.38V597a19.39,19.39,0,0,1-19.37,19.37H534.07A19.39,19.39,0,0,1,514.7,597V539.33A19.39,19.39,0,0,1,534.07,520Zm63.37,8.15a5.68,5.68,0,1,0,5.68,5.67,5.67,5.67,0,0,0-5.68-5.67Zm.67,40a35.25,35.25,0,1,0-35.25,35.25,35.25,35.25,0,0,0,35.25-35.25Z"/></g></g></svg>