<svg xmlns="http://www.w3.org/2000/svg" xmlns:xlink="http://www.w3.org/1999/xlink" viewBox="0 0 1080 1350"><defs><style>.cls-1{isolation:isolate;}.cls-2,.cls-3{mix-blend-mode:multiply;}.cls-2{fill:url(#Degradado_sin_nombre_124);}.cls-3{fill:url(#Degradado_sin_nombre_124-2);}.cls-4{fill:#fff;}</style><linearGradient id="Degradado_sin_nombre_124" x1="477.79" y1="566.57" x2="645.17" y2="566.57" gradientUnits="userSpaceOnUse"><stop offset="0" stop-color="#1a83c6"/><stop offset="0.54" stop-color="#32dadf"/><stop offset="1" stop-color="#30edef"/></linearGradient><linearGradient id="Degradado_sin_nombre_124-2" x1="583.42" y1="525.44" x2="507.24" y2="644.67" xlink:href="#Degradado_sin_nombre_124"/></defs><g class="cls-1"><g id="Capa_1" data-name="Capa 1"><path class="cls-2" d="M571.45,502.85a30,30,0,0,1-4.12.58c-6.27.41-12.4-1.58-18.51-3-10.87-2.58-22.08-3.08-33.14-3.38-10.69-.29-24.24,3.78-31.54,11.89-8.45,9.41-6.9,22.35-4.25,34.28,3.93,17.64,10.11,35.94,25.56,50.79,11.21,10.77,25.33,18.19,39.52,24.25,6.46,2.75,12.25,6.56,18.88,8.76,8.1,2.69,16.38,4.8,24.64,6.92,4.55,1.16,9.17,2.33,13.86,2.2A41.54,41.54,0,0,0,615.61,633c6.44-2.42,12.73-5.48,18-9.91s9.46-10.35,10.93-17.08c2.85-13-4.74-25.83-7.81-38.84-3.17-13.46-1.55-28-6.51-40.86a42.21,42.21,0,0,0-47.7-26.24C578.8,500.85,575.16,502.1,571.45,502.85Z"/><path class="cls-3" d="M506.15,586.23a77.31,77.31,0,0,0-6.37-16.75c-3.61-7.19-9-13.68-16.1-17.47a14.22,14.22,0,0,0-6.17-1.91,7,7,0,0,0-5.77,2.47c-1.4,1.87-1.47,4.42-1,6.72s1.29,4.5,1.53,6.82c.61,5.83-2.71,11.28-6,16.18a35.57,35.57,0,0,0-4,7.25,18.87,18.87,0,0,0,.32,13.18,49.42,49.42,0,0,0,6.2,11.69c4.28,5.44,11.68,8.58,18.4,6.91,6.54-1.63,11.33-7.22,14.73-13a35.25,35.25,0,0,0,4.95-13.51A26.06,26.06,0,0,0,506.15,586.23ZM592.79,620a18,18,0,0,0-11.2,18.12,11.54,11.54,0,0,0,1.25,4.35,13.23,13.23,0,0,0,5.21,4.76c2.67,1.52,6,2.61,8.76,1.23a9.49,9.49,0,0,0,3-2.71,23,23,0,0,0,5.38-13.36C605.43,625.4,600.87,617,592.79,620ZM564.14,515.29c5.23-1,10.75-3.51,12.86-8.41a16.11,16.11,0,0,0,1-6.76c-.14-4.73-1.37-9.67-4.65-13.08s-9-4.76-12.9-2.09l-.2.1c-5-.72-10,2.9-11.89,7.58s-1.28,10.1.53,14.83c1,2.63,2.46,5.24,4.84,6.76C556.75,516.15,560.63,516,564.14,515.29ZM613,540.07A51.67,51.67,0,0,0,598.79,528c-15.54-8.72-30.67-4.89-47.3-5.13-13.86-.2-27.31-7.05-40.45,2a30.86,30.86,0,0,0-13,27.29c1.36,17.08,16.93,32,13.67,48.81-1.34,6.9-5.74,12.8-8,19.46-4.38,13,.64,28.57,11.78,36.57s27.5,7.77,38.42-.53c10.34-7.88,15.1-21.22,24.7-30C589,617,604.06,613.74,614.23,604,631.18,587.76,628,558.07,613,540.07Zm26.12,8.54a6.38,6.38,0,0,0-6.39-1c-2.24,1.1-3.22,3.76-3.64,6.22-1.24,7.29.61,14.75,2.93,21.77a15.5,15.5,0,0,0,2.09,4.56,5.67,5.67,0,0,0,4.2,2.47c2.51.08,4.58-2.07,5.6-4.36,1.38-3.09,1.5-6.56,1.59-9.94C645.66,561.35,645.31,553.19,639.09,548.61ZM482.24,632.36a6.76,6.76,0,0,0,5.81,5,11.08,11.08,0,0,0,5-1,5.82,5.82,0,0,0,2.26-1.38c1.36-1.54.89-4-.32-5.67C491.54,624.55,480.2,624.09,482.24,632.36ZM582,487.84a3.83,3.83,0,0,0-.46,5.48,5.2,5.2,0,0,0,5.73,1.1,4.77,4.77,0,0,0,1.49-.92,4,4,0,0,0,.14-5.4,4.42,4.42,0,0,0-5.46-.71M571.62,648.55a9.4,9.4,0,0,0,1,4,3.63,3.63,0,0,0,3.38,2,3.82,3.82,0,0,0,2.48-1.66,5.66,5.66,0,0,0,.42-6,4.86,4.86,0,0,0-5.45-2.25,4.25,4.25,0,0,0-2.8,5c.12.41.78.77.85.34M533,499.94a7.15,7.15,0,0,0,5.86,8.35,2.13,2.13,0,0,0,1.25-.13,2.59,2.59,0,0,0,1-2c.26-1.48.51-3,.76-4.44a6.65,6.65,0,0,0,.12-2.51,3.94,3.94,0,0,0-3.77-3,5.13,5.13,0,0,0-4.29,2.49,7.4,7.4,0,0,0-.89,5"/><path class="cls-4" d="M530.68,619.1a2.49,2.49,0,0,1-2.34-1.63L515,581.33a2.5,2.5,0,0,1,4.69-1.74L533,615.73a2.51,2.51,0,0,1-1.48,3.21A2.43,2.43,0,0,1,530.68,619.1Z"/><path class="cls-4" d="M530.87,619.48a2.4,2.4,0,0,1-1.1-.26,2.48,2.48,0,0,1-1.39-2.35L529.71,587a2.5,2.5,0,0,1,4-1.88l17.86,13.55a2.56,2.56,0,0,1,1,1.93,2.49,2.49,0,0,1-.89,2l-19.19,16.28A2.51,2.51,0,0,1,530.87,619.48ZM534.5,592l-.87,19.34,12.44-10.56Z"/><path class="cls-4" d="M581.27,624.84a10.5,10.5,0,0,1-6.37-2.15l-44.2-33.54a2.51,2.51,0,0,1-.14-3.88l35.79-31.36-47.77,28.7a2.49,2.49,0,0,1-2.08.22L485,572.19a6.43,6.43,0,0,1-.22-12.11l122.09-46.39a6.44,6.44,0,0,1,8.53,7.58l-23.9,95.58a10.52,10.52,0,0,1-6.73,7.39A10.66,10.66,0,0,1,581.27,624.84ZM536.16,587l41.77,31.69a5.55,5.55,0,0,0,8.73-3.07l23.89-95.59a1.42,1.42,0,0,0-1.9-1.68l-.88-2.34.88,2.34L486.56,564.76a1.36,1.36,0,0,0-.92,1.36,1.38,1.38,0,0,0,1,1.34L517,577.72l70.71-42.47a2.5,2.5,0,0,1,2.93,4Z"/></g></g></svg>