<svg xmlns="http://www.w3.org/2000/svg" xmlns:xlink="http://www.w3.org/1999/xlink" viewBox="0 0 1080 1350"><defs><style>.cls-1{isolation:isolate;}.cls-2,.cls-3{mix-blend-mode:multiply;}.cls-2{fill:url(#Degradado_sin_nombre_65);}.cls-3{fill:url(#Degradado_sin_nombre_65-2);}.cls-4{fill:#fff;fill-rule:evenodd;}</style><linearGradient id="Degradado_sin_nombre_65" x1="496.74" y1="495.48" x2="612.57" y2="597.68" gradientUnits="userSpaceOnUse"><stop offset="0" stop-color="#336037"/><stop offset="0.54" stop-color="#05c867"/><stop offset="1" stop-color="#e0ff41"/></linearGradient><linearGradient id="Degradado_sin_nombre_65-2" x1="510.54" y1="513.74" x2="639.99" y2="638.65" xlink:href="#Degradado_sin_nombre_65"/></defs><g class="cls-1"><g id="Capa_1" data-name="Capa 1"><path class="cls-2" d="M561.29,499a30.24,30.24,0,0,0,4.24.59c6.45.43,12.75-1.61,19-3.1,11.18-2.66,22.71-3.16,34.09-3.48,11-.3,24.93,3.89,32.43,12.24,8.7,9.68,7.1,23,4.37,35.25-4,18.15-10.39,37-26.29,52.24-11.53,11.08-26,18.71-40.64,24.94-6.64,2.84-12.6,6.75-19.42,9-8.33,2.77-16.85,5-25.35,7.12-4.67,1.19-9.43,2.4-14.25,2.26a42.52,42.52,0,0,1-13.64-3.18c-6.62-2.49-13.09-5.63-18.51-10.19s-9.73-10.65-11.24-17.56c-2.93-13.43,4.87-26.57,8-40,3.26-13.85,1.59-28.75,6.7-42a43.4,43.4,0,0,1,49-27C553.73,496.92,557.47,498.21,561.29,499Z"/><path class="cls-3" d="M627.74,593.52a36.34,36.34,0,0,0,5.1,13.9c3.49,6,8.42,11.74,15.15,13.41,6.91,1.72,14.53-1.51,18.93-7.11a51.06,51.06,0,0,0,6.37-12,19.39,19.39,0,0,0,.33-13.55,36.49,36.49,0,0,0-4.16-7.47c-3.33-5-6.75-10.63-6.12-16.64.25-2.38,1.13-4.65,1.57-7s.38-5-1.06-6.91a7.17,7.17,0,0,0-5.94-2.54,14.64,14.64,0,0,0-6.35,2c-7.3,3.89-12.84,10.57-16.55,18a79.9,79.9,0,0,0-6.56,17.23A27.27,27.27,0,0,0,627.74,593.52ZM526.58,632.24A23.62,23.62,0,0,0,532.11,646a9.57,9.57,0,0,0,3.1,2.78c2.83,1.42,6.26.3,9-1.26a13.44,13.44,0,0,0,5.35-4.89,11.63,11.63,0,0,0,1.29-4.48,18.49,18.49,0,0,0-11.52-18.64C531,616.37,526.34,625,526.58,632.24Zm52.93-121.56c2.44-1.57,3.94-4.25,5-7,1.86-4.87,2.52-10.43.54-15.25s-7.08-8.54-12.23-7.8l-.2-.1c-4-2.75-9.89-1.37-13.27,2.14s-4.64,8.59-4.78,13.46a16.37,16.37,0,0,0,1,6.95c2.16,5,7.84,7.59,13.22,8.65C572.42,512.48,576.41,512.66,579.51,510.68ZM517.29,603c10.46,10,25.93,13.33,36.63,23.1,9.87,9,14.76,22.74,25.4,30.84,11.23,8.55,28.06,8.78,39.52.55s16.62-24.25,12.11-37.62c-2.31-6.85-6.84-12.91-8.21-20-3.36-17.3,12.66-32.64,14.06-50.2a31.74,31.74,0,0,0-13.37-28.07c-13.52-9.3-27.36-2.25-41.61-2.05-17.1.24-32.67-3.69-48.65,5.28a53.17,53.17,0,0,0-14.59,12.43C503.09,555.78,499.86,586.31,517.29,603Zm-32.13-36.66c.09,3.47.21,7,1.63,10.22,1.06,2.36,3.18,4.57,5.76,4.49a5.86,5.86,0,0,0,4.32-2.54,16.42,16.42,0,0,0,2.16-4.69c2.38-7.22,4.28-14.89,3-22.39-.43-2.53-1.44-5.27-3.74-6.4-2.09-1-4.69-.39-6.57,1C485.33,550.76,485,559.15,485.16,566.36ZM639.89,629c-1.25,1.7-1.73,4.25-.33,5.83a6.05,6.05,0,0,0,2.33,1.42,11.42,11.42,0,0,0,5.18,1,7,7,0,0,0,6-5.13C655.15,623.68,643.49,624.16,639.89,629Zm-91-145.95a4.55,4.55,0,0,0-5.61.72,4.14,4.14,0,0,0,.14,5.56,4.68,4.68,0,0,0,1.53.95,5.33,5.33,0,0,0,5.89-1.14,3.92,3.92,0,0,0-.47-5.63m10.88,166.74c.07.44.75.07.88-.35a4.39,4.39,0,0,0-2.89-5.17,5,5,0,0,0-5.6,2.32,5.85,5.85,0,0,0,.43,6.19,3.91,3.91,0,0,0,2.56,1.7,3.72,3.72,0,0,0,3.47-2,9.74,9.74,0,0,0,1-4.1m39.64-149a7.65,7.65,0,0,0-.92-5.14,5.27,5.27,0,0,0-4.41-2.56,4.06,4.06,0,0,0-3.88,3,7,7,0,0,0,.12,2.58c.26,1.53.52,3,.79,4.57a2.68,2.68,0,0,0,1.06,2.08,2.27,2.27,0,0,0,1.29.14,7.36,7.36,0,0,0,6-8.59"/><path class="cls-4" d="M625.51,569.17a50.15,50.15,0,0,0-100.2-.94,13.83,13.83,0,0,0-.11,2.16,49.74,49.74,0,0,0,7.2,25.71l-9.09,26.72L551.13,614a50.31,50.31,0,0,0,74.43-43.61c0-.44,0-.78,0-1.22Zm-27.16,11.31c-1.27-.62-7.26-3.61-8.37-4.05s-2-.61-2.82.66a51.69,51.69,0,0,1-3.88,4.71c-.72.89-1.45,1-2.61.39a31.32,31.32,0,0,1-9.92-6.09,36.52,36.52,0,0,1-6.87-8.37c-.66-1.33-.11-1.89.5-2.61a14.7,14.7,0,0,0,1.88-2.1,2.22,2.22,0,0,0,.45-.56,13.15,13.15,0,0,0,.77-1.44,1.91,1.91,0,0,0-.11-2.11c-.22-.61-2.71-6.7-3.77-9.08s-2.05-2.05-2.71-2.05-1.55-.11-2.39-.11a4.19,4.19,0,0,0-3.26,1.55,13.11,13.11,0,0,0-4.38,10.19,12.64,12.64,0,0,0,.72,4.11A27.29,27.29,0,0,0,555.9,572c.61.83,8.48,13.52,21,18.39s12.58,3.22,14.8,3.05,7.26-2.88,8.31-5.82,1-5.26.67-5.82a7.16,7.16,0,0,0-2.33-1.32Zm-23,31.81a42,42,0,0,1-23.16-6.93L536,610.51l5.21-15.57a41.48,41.48,0,0,1-8-24.55,32.34,32.34,0,0,1,.22-4,42.2,42.2,0,0,1,84,.78,30.24,30.24,0,0,1,.12,3.27,42.11,42.11,0,0,1-42.18,41.9Z"/></g></g></svg>